<?xml version="1.0" encoding="UTF-8"?>
<!-- Generator: visioncortex VTracer 0.6.3 -->
<svg version="1.1" xmlns="http://www.w3.org/2000/svg" width="1280" height="1280">
<path d="M0 0 C2.39 0.03 4.77 0.02 7.15 0.01 C14.89 0.02 21.88 0.27 29.06 3.47 C29.99 3.77 30.92 4.07 31.89 4.39 C40.61 7.37 50.03 11.36 57.06 17.47 C57.06 18.13 57.06 18.79 57.06 19.47 C57.68 19.78 58.29 20.09 58.93 20.4 C60.31 21.09 61.68 21.78 63.06 22.47 C63.06 23.13 63.06 23.79 63.06 24.47 C63.92 24.84 63.92 24.84 64.81 25.23 C67.34 26.62 69.04 28.2 71.09 30.25 C71.89 31.04 72.68 31.83 73.51 32.65 C74.38 33.53 75.25 34.41 76.15 35.31 C77.1 36.25 78.04 37.2 78.99 38.14 C81.6 40.74 84.2 43.34 86.8 45.95 C89.62 48.78 92.45 51.61 95.29 54.43 C100.25 59.39 105.21 64.35 110.17 69.31 C117.54 76.69 124.92 84.07 132.3 91.44 C145.48 104.61 158.65 117.78 171.82 130.95 C183.34 142.48 194.86 154.01 206.39 165.53 C207.15 166.29 207.92 167.06 208.7 167.84 C211.8 170.94 214.9 174.04 218 177.14 C247.09 206.23 276.18 235.32 305.26 264.41 C331.13 290.28 356.99 316.15 382.86 342.01 C411.91 371.05 440.95 400.08 469.98 429.12 C473.08 432.22 476.17 435.31 479.26 438.4 C480.4 439.54 480.4 439.54 481.57 440.71 C493.09 452.23 504.61 463.75 516.14 475.27 C529.23 488.36 542.33 501.46 555.41 514.56 C562.75 521.9 570.08 529.23 577.42 536.57 C582.32 541.45 587.21 546.35 592.09 551.24 C594.88 554.04 597.68 556.83 600.47 559.62 C603.48 562.62 606.47 565.62 609.46 568.62 C610.35 569.5 611.23 570.38 612.14 571.28 C612.93 572.08 613.72 572.87 614.53 573.69 C615.22 574.37 615.9 575.06 616.61 575.77 C618.06 577.47 618.06 577.47 618.06 579.47 C618.72 579.47 619.38 579.47 620.06 579.47 C623.06 582.93 623.06 582.93 623.06 585.47 C623.72 585.47 624.38 585.47 625.06 585.47 C627.35 588.03 628.06 588.95 628.06 592.47 C628.72 592.47 629.38 592.47 630.06 592.47 C639.42 611.24 643.51 627.47 643.06 648.47 C643.04 649.27 643.02 650.07 643.01 650.9 C642.1 664.19 636.38 676.96 630.06 688.47 C629.4 688.47 628.74 688.47 628.06 688.47 C627.93 689.06 627.81 689.66 627.68 690.28 C627.06 692.47 627.06 692.47 625.06 695.47 C624.4 695.47 623.74 695.47 623.06 695.47 C622.75 696.09 622.44 696.7 622.12 697.34 C621.43 698.72 620.74 700.09 620.06 701.47 C619.4 701.47 618.74 701.47 618.06 701.47 C617.81 702.04 617.55 702.62 617.29 703.21 C615.9 705.75 614.33 707.45 612.28 709.5 C611.48 710.3 610.69 711.09 609.87 711.92 C608.56 713.23 608.56 713.23 607.21 714.56 C606.27 715.51 605.33 716.45 604.39 717.4 C601.79 720 599.18 722.61 596.57 725.21 C593.74 728.03 590.92 730.86 588.09 733.69 C583.14 738.66 578.18 743.62 573.21 748.58 C565.83 755.95 558.46 763.33 551.08 770.71 C537.92 783.88 524.75 797.06 511.57 810.22 C500.04 821.75 488.52 833.27 476.99 844.8 C475.85 845.94 475.85 845.94 474.68 847.11 C471.58 850.21 468.48 853.31 465.38 856.41 C436.3 885.5 407.21 914.59 378.11 943.67 C352.24 969.54 326.37 995.4 300.51 1021.27 C271.48 1050.32 242.44 1079.36 213.4 1108.39 C210.31 1111.48 207.21 1114.58 204.12 1117.67 C202.98 1118.81 202.98 1118.81 201.81 1119.98 C190.29 1131.5 178.77 1143.02 167.25 1154.55 C154.16 1167.64 141.07 1180.74 127.97 1193.82 C120.63 1201.16 113.29 1208.49 105.96 1215.83 C101.07 1220.73 96.18 1225.62 91.28 1230.5 C88.49 1233.29 85.69 1236.09 82.9 1238.88 C79.91 1241.88 76.91 1244.88 73.9 1247.87 C73.02 1248.76 72.15 1249.64 71.24 1250.55 C70.45 1251.34 69.65 1252.13 68.84 1252.94 C68.15 1253.62 67.46 1254.31 66.76 1255.02 C65.06 1256.47 65.06 1256.47 63.06 1256.47 C63.06 1257.13 63.06 1257.79 63.06 1258.47 C59.6 1261.47 59.6 1261.47 57.06 1261.47 C57.06 1262.13 57.06 1262.79 57.06 1263.47 C51.68 1267.8 44.64 1273.43 37.49 1273.49 C35.06 1273.15 35.06 1273.15 32.87 1272.67 C32.27 1272.6 31.67 1272.53 31.06 1272.47 C30.4 1273.13 29.74 1273.79 29.06 1274.47 C27.9 1274.76 26.75 1275.04 25.56 1275.34 C21.99 1276.06 21.99 1276.06 20.84 1278.54 C20.58 1279.17 20.32 1279.81 20.06 1280.47 C14.93 1280.54 9.81 1280.6 4.69 1280.63 C2.95 1280.65 1.21 1280.67 -0.53 1280.69 C-3.04 1280.73 -5.56 1280.75 -8.07 1280.76 C-9.22 1280.78 -9.22 1280.78 -10.4 1280.81 C-15.89 1280.81 -19.89 1279.62 -24.94 1277.47 C-26.36 1277.02 -27.77 1276.58 -29.19 1276.15 C-38.42 1273.07 -46.29 1268.61 -53.7 1262.33 C-55.62 1260.73 -57.53 1259.38 -59.63 1258.03 C-64 1254.97 -66.82 1250.73 -69.94 1246.47 C-70.44 1245.89 -70.93 1245.3 -71.43 1244.7 C-85.69 1227.56 -89.44 1205.01 -88.94 1183.47 C-88.93 1182.69 -88.91 1181.9 -88.89 1181.1 C-87.71 1163.79 -78.97 1145.57 -67.94 1132.47 C-67.28 1132.47 -66.62 1132.47 -65.94 1132.47 C-65.67 1131.7 -65.41 1130.94 -65.13 1130.15 C-63.99 1127.58 -63.13 1126.2 -60.94 1124.47 C-60.28 1124.47 -59.62 1124.47 -58.94 1124.47 C-58.67 1123.83 -58.41 1123.19 -58.13 1122.53 C-56.94 1120.47 -56.94 1120.47 -53.94 1119.47 C-53.61 1118.81 -53.28 1118.15 -52.94 1117.47 C-51.94 1115.47 -51.94 1115.47 -48.94 1114.47 C-48.61 1113.81 -48.28 1113.15 -47.94 1112.47 C-46.94 1110.47 -46.94 1110.47 -43.94 1109.47 C-43.61 1108.81 -43.28 1108.15 -42.94 1107.47 C-41.94 1105.47 -41.94 1105.47 -38.94 1104.47 C-38.61 1103.81 -38.28 1103.15 -37.94 1102.47 C-36.94 1100.47 -36.94 1100.47 -33.94 1099.47 C-33.61 1098.81 -33.28 1098.15 -32.94 1097.47 C-31.94 1095.47 -31.94 1095.47 -28.94 1094.47 C-28.61 1093.81 -28.28 1093.15 -27.94 1092.47 C-26.94 1090.47 -26.94 1090.47 -23.94 1089.47 C-23.61 1088.81 -23.28 1088.15 -22.94 1087.47 C-21.94 1085.47 -21.94 1085.47 -18.94 1084.47 C-18.61 1083.81 -18.28 1083.15 -17.94 1082.47 C-16.94 1080.47 -16.94 1080.47 -13.94 1079.47 C-13.61 1078.81 -13.28 1078.15 -12.94 1077.47 C-11.94 1075.47 -11.94 1075.47 -8.94 1074.47 C-8.61 1073.81 -8.28 1073.15 -7.94 1072.47 C-6.94 1070.47 -6.94 1070.47 -3.94 1069.47 C-3.61 1068.81 -3.28 1068.15 -2.94 1067.47 C-1.94 1065.47 -1.94 1065.47 1.06 1064.47 C1.39 1063.81 1.72 1063.15 2.06 1062.47 C3.06 1060.47 3.06 1060.47 6.06 1059.47 C6.39 1058.81 6.72 1058.15 7.06 1057.47 C8.06 1055.47 8.06 1055.47 11.06 1054.47 C11.39 1053.81 11.72 1053.15 12.06 1052.47 C13.06 1050.47 13.06 1050.47 16.06 1049.47 C16.39 1048.81 16.72 1048.15 17.06 1047.47 C18.06 1045.47 18.06 1045.47 21.06 1044.47 C21.39 1043.81 21.72 1043.15 22.06 1042.47 C23.06 1040.47 23.06 1040.47 26.06 1039.47 C26.39 1038.81 26.72 1038.15 27.06 1037.47 C28.06 1035.47 28.06 1035.47 31.06 1034.47 C31.39 1033.81 31.72 1033.15 32.06 1032.47 C33.06 1030.47 33.06 1030.47 36.06 1029.47 C36.39 1028.81 36.72 1028.15 37.06 1027.47 C38.06 1025.47 38.06 1025.47 41.06 1024.47 C41.39 1023.81 41.72 1023.15 42.06 1022.47 C43.06 1020.47 43.06 1020.47 46.06 1019.47 C46.39 1018.81 46.72 1018.15 47.06 1017.47 C48.06 1015.47 48.06 1015.47 51.06 1014.47 C51.39 1013.81 51.72 1013.15 52.06 1012.47 C53.06 1010.47 53.06 1010.47 56.06 1009.47 C56.39 1008.81 56.72 1008.15 57.06 1007.47 C58.06 1005.47 58.06 1005.47 61.06 1004.47 C61.39 1003.81 61.72 1003.15 62.06 1002.47 C63.06 1000.47 63.06 1000.47 66.06 999.47 C66.39 998.81 66.72 998.15 67.06 997.47 C68.06 995.47 68.06 995.47 71.06 994.47 C71.39 993.81 71.72 993.15 72.06 992.47 C73.06 990.47 73.06 990.47 76.06 989.47 C76.39 988.81 76.72 988.15 77.06 987.47 C78.06 985.47 78.06 985.47 81.06 984.47 C81.39 983.81 81.72 983.15 82.06 982.47 C83.06 980.47 83.06 980.47 86.06 979.47 C86.39 978.81 86.72 978.15 87.06 977.47 C88.06 975.47 88.06 975.47 91.06 974.47 C91.39 973.81 91.72 973.15 92.06 972.47 C93.06 970.47 93.06 970.47 96.06 969.47 C96.39 968.81 96.72 968.15 97.06 967.47 C98.06 965.47 98.06 965.47 101.06 964.47 C101.39 963.81 101.72 963.15 102.06 962.47 C103.06 960.47 103.06 960.47 106.06 959.47 C106.39 958.81 106.72 958.15 107.06 957.47 C108.06 955.47 108.06 955.47 111.06 954.47 C111.39 953.81 111.72 953.15 112.06 952.47 C113.06 950.47 113.06 950.47 116.06 949.47 C116.39 948.81 116.72 948.15 117.06 947.47 C118.06 945.47 118.06 945.47 121.06 944.47 C121.39 943.81 121.72 943.15 122.06 942.47 C123.06 940.47 123.06 940.47 126.06 939.47 C126.39 938.81 126.72 938.15 127.06 937.47 C128.06 935.47 128.06 935.47 131.06 934.47 C131.39 933.81 131.72 933.15 132.06 932.47 C133.06 930.47 133.06 930.47 136.06 929.47 C136.39 928.81 136.72 928.15 137.06 927.47 C138.06 925.47 138.06 925.47 141.06 924.47 C141.39 923.81 141.72 923.15 142.06 922.47 C143.06 920.47 143.06 920.47 146.06 919.47 C146.39 918.81 146.72 918.15 147.06 917.47 C148.06 915.47 148.06 915.47 151.06 914.47 C151.39 913.81 151.72 913.15 152.06 912.47 C153.06 910.47 153.06 910.47 156.06 909.47 C156.39 908.81 156.72 908.15 157.06 907.47 C158.06 905.47 158.06 905.47 161.06 904.47 C161.39 903.81 161.72 903.15 162.06 902.47 C163.06 900.47 163.06 900.47 166.06 899.47 C166.39 898.81 166.72 898.15 167.06 897.47 C168.06 895.47 168.06 895.47 171.06 894.47 C171.39 893.81 171.72 893.15 172.06 892.47 C173.06 890.47 173.06 890.47 176.06 889.47 C176.39 888.81 176.72 888.15 177.06 887.47 C178.06 885.47 178.06 885.47 181.06 884.47 C181.39 883.81 181.72 883.15 182.06 882.47 C183.06 880.47 183.06 880.47 186.06 879.47 C186.39 878.81 186.72 878.15 187.06 877.47 C188.06 875.47 188.06 875.47 191.06 874.47 C191.39 873.81 191.72 873.15 192.06 872.47 C193.06 870.47 193.06 870.47 196.06 869.47 C196.39 868.81 196.72 868.15 197.06 867.47 C198.06 865.47 198.06 865.47 201.06 864.47 C201.39 863.81 201.72 863.15 202.06 862.47 C203.06 860.47 203.06 860.47 206.06 859.47 C206.39 858.81 206.72 858.15 207.06 857.47 C208.06 855.47 208.06 855.47 211.06 854.47 C211.39 853.81 211.72 853.15 212.06 852.47 C213.06 850.47 213.06 850.47 216.06 849.47 C216.39 848.81 216.72 848.15 217.06 847.47 C218.06 845.47 218.06 845.47 221.06 844.47 C221.39 843.81 221.72 843.15 222.06 842.47 C223.06 840.47 223.06 840.47 226.06 839.47 C226.39 838.81 226.72 838.15 227.06 837.47 C228.06 835.47 228.06 835.47 231.06 834.47 C231.39 833.81 231.72 833.15 232.06 832.47 C233.06 830.47 233.06 830.47 236.06 829.47 C236.39 828.81 236.72 828.15 237.06 827.47 C238.06 825.47 238.06 825.47 241.06 824.47 C241.39 823.81 241.72 823.15 242.06 822.47 C243.06 820.47 243.06 820.47 246.06 819.47 C246.39 818.81 246.72 818.15 247.06 817.47 C248.06 815.47 248.06 815.47 251.06 814.47 C251.39 813.81 251.72 813.15 252.06 812.47 C253.06 810.47 253.06 810.47 256.06 809.47 C256.39 808.81 256.72 808.15 257.06 807.47 C258.06 805.47 258.06 805.47 261.06 804.47 C261.39 803.81 261.72 803.15 262.06 802.47 C263.06 800.47 263.06 800.47 266.06 799.47 C266.39 798.81 266.72 798.15 267.06 797.47 C268.06 795.47 268.06 795.47 271.06 794.47 C271.39 793.81 271.72 793.15 272.06 792.47 C273.06 790.47 273.06 790.47 276.06 789.47 C276.39 788.81 276.72 788.15 277.06 787.47 C278.06 785.47 278.06 785.47 281.06 784.47 C281.39 783.81 281.72 783.15 282.06 782.47 C283.06 780.47 283.06 780.47 286.06 779.47 C286.39 778.81 286.72 778.15 287.06 777.47 C288.06 775.47 288.06 775.47 291.06 774.47 C291.39 773.81 291.72 773.15 292.06 772.47 C293.06 770.47 293.06 770.47 296.06 769.47 C296.39 768.81 296.72 768.15 297.06 767.47 C298.06 765.47 298.06 765.47 301.06 764.47 C301.39 763.81 301.72 763.15 302.06 762.47 C303.06 760.47 303.06 760.47 306.06 759.47 C306.39 758.81 306.72 758.15 307.06 757.47 C308.06 755.47 308.06 755.47 311.06 754.47 C311.39 753.81 311.72 753.15 312.06 752.47 C313.06 750.47 313.06 750.47 316.06 749.47 C316.39 748.81 316.72 748.15 317.06 747.47 C318.06 745.47 318.06 745.47 321.06 744.47 C321.39 743.81 321.72 743.15 322.06 742.47 C323.06 740.47 323.06 740.47 326.06 739.47 C326.39 738.48 326.72 737.49 327.06 736.47 C327.72 736.47 328.38 736.47 329.06 736.47 C329.06 735.81 329.06 735.15 329.06 734.47 C329.72 734.47 330.38 734.47 331.06 734.47 C331.39 733.48 331.72 732.49 332.06 731.47 C332.72 731.47 333.38 731.47 334.06 731.47 C334.06 730.81 334.06 730.15 334.06 729.47 C334.72 729.47 335.38 729.47 336.06 729.47 C336.39 728.48 336.72 727.49 337.06 726.47 C337.72 726.47 338.38 726.47 339.06 726.47 C339.06 725.81 339.06 725.15 339.06 724.47 C339.72 724.47 340.38 724.47 341.06 724.47 C341.39 723.48 341.72 722.49 342.06 721.47 C342.72 721.47 343.38 721.47 344.06 721.47 C344.06 720.81 344.06 720.15 344.06 719.47 C344.72 719.47 345.38 719.47 346.06 719.47 C346.39 718.48 346.72 717.49 347.06 716.47 C347.72 716.47 348.38 716.47 349.06 716.47 C349.06 715.81 349.06 715.15 349.06 714.47 C349.72 714.47 350.38 714.47 351.06 714.47 C351.39 713.48 351.72 712.49 352.06 711.47 C352.72 711.47 353.38 711.47 354.06 711.47 C354.06 710.81 354.06 710.15 354.06 709.47 C354.72 709.47 355.38 709.47 356.06 709.47 C356.39 708.48 356.72 707.49 357.06 706.47 C357.72 706.47 358.38 706.47 359.06 706.47 C359.06 705.81 359.06 705.15 359.06 704.47 C359.72 704.47 360.38 704.47 361.06 704.47 C361.39 703.48 361.72 702.49 362.06 701.47 C362.72 701.47 363.38 701.47 364.06 701.47 C364.06 700.81 364.06 700.15 364.06 699.47 C364.72 699.47 365.38 699.47 366.06 699.47 C366.39 698.48 366.72 697.49 367.06 696.47 C367.72 696.47 368.38 696.47 369.06 696.47 C369.06 695.81 369.06 695.15 369.06 694.47 C369.72 694.47 370.38 694.47 371.06 694.47 C371.39 693.48 371.72 692.49 372.06 691.47 C372.72 691.47 373.38 691.47 374.06 691.47 C374.06 690.81 374.06 690.15 374.06 689.47 C374.72 689.47 375.38 689.47 376.06 689.47 C376.39 688.48 376.72 687.49 377.06 686.47 C377.72 686.47 378.38 686.47 379.06 686.47 C379.06 685.81 379.06 685.15 379.06 684.47 C379.72 684.47 380.38 684.47 381.06 684.47 C381.39 683.48 381.72 682.49 382.06 681.47 C382.72 681.47 383.38 681.47 384.06 681.47 C384.06 680.81 384.06 680.15 384.06 679.47 C384.72 679.47 385.38 679.47 386.06 679.47 C386.39 678.48 386.72 677.49 387.06 676.47 C387.72 676.47 388.38 676.47 389.06 676.47 C389.06 675.81 389.06 675.15 389.06 674.47 C389.72 674.47 390.38 674.47 391.06 674.47 C391.39 673.48 391.72 672.49 392.06 671.47 C392.72 671.47 393.38 671.47 394.06 671.47 C394.06 670.81 394.06 670.15 394.06 669.47 C394.72 669.47 395.38 669.47 396.06 669.47 C396.39 668.48 396.72 667.49 397.06 666.47 C397.72 666.47 398.38 666.47 399.06 666.47 C399.06 665.81 399.06 665.15 399.06 664.47 C399.72 664.47 400.38 664.47 401.06 664.47 C401.39 663.48 401.72 662.49 402.06 661.47 C402.72 661.47 403.38 661.47 404.06 661.47 C404.06 660.81 404.06 660.15 404.06 659.47 C404.72 659.47 405.38 659.47 406.06 659.47 C406.39 658.48 406.72 657.49 407.06 656.47 C407.72 656.47 408.38 656.47 409.06 656.47 C409.06 655.81 409.06 655.15 409.06 654.47 C409.72 654.47 410.38 654.47 411.06 654.47 C411.39 653.48 411.72 652.49 412.06 651.47 C412.72 651.47 413.38 651.47 414.06 651.47 C414.06 650.81 414.06 650.15 414.06 649.47 C414.72 649.47 415.38 649.47 416.06 649.47 C416.39 648.48 416.72 647.49 417.06 646.47 C417.72 646.47 418.38 646.47 419.06 646.47 C419.06 645.81 419.06 645.15 419.06 644.47 C419.72 644.47 420.38 644.47 421.06 644.47 C421.86 641.18 422.15 639.76 421.06 636.47 C420.4 636.47 419.74 636.47 419.06 636.47 C419.06 635.81 419.06 635.15 419.06 634.47 C418.07 634.14 417.08 633.81 416.06 633.47 C416.06 632.81 416.06 632.15 416.06 631.47 C415.4 631.47 414.74 631.47 414.06 631.47 C414.06 630.81 414.06 630.15 414.06 629.47 C413.07 629.14 412.08 628.81 411.06 628.47 C411.06 627.81 411.06 627.15 411.06 626.47 C410.4 626.47 409.74 626.47 409.06 626.47 C409.06 625.81 409.06 625.15 409.06 624.47 C408.07 624.14 407.08 623.81 406.06 623.47 C406.06 622.81 406.06 622.15 406.06 621.47 C405.4 621.47 404.74 621.47 404.06 621.47 C404.06 620.81 404.06 620.15 404.06 619.47 C403.07 619.14 402.08 618.81 401.06 618.47 C401.06 617.81 401.06 617.15 401.06 616.47 C400.4 616.47 399.74 616.47 399.06 616.47 C399.06 615.81 399.06 615.15 399.06 614.47 C398.07 614.14 397.08 613.81 396.06 613.47 C396.06 612.81 396.06 612.15 396.06 611.47 C395.4 611.47 394.74 611.47 394.06 611.47 C394.06 610.81 394.06 610.15 394.06 609.47 C393.07 609.14 392.08 608.81 391.06 608.47 C391.06 607.81 391.06 607.15 391.06 606.47 C390.4 606.47 389.74 606.47 389.06 606.47 C389.06 605.81 389.06 605.15 389.06 604.47 C388.07 604.14 387.08 603.81 386.06 603.47 C386.06 602.81 386.06 602.15 386.06 601.47 C385.4 601.47 384.74 601.47 384.06 601.47 C384.06 600.81 384.06 600.15 384.06 599.47 C383.07 599.14 382.08 598.81 381.06 598.47 C381.06 597.81 381.06 597.15 381.06 596.47 C380.4 596.47 379.74 596.47 379.06 596.47 C379.06 595.81 379.06 595.15 379.06 594.47 C378.07 594.14 377.08 593.81 376.06 593.47 C376.06 592.81 376.06 592.15 376.06 591.47 C375.4 591.47 374.74 591.47 374.06 591.47 C374.06 590.81 374.06 590.15 374.06 589.47 C373.07 589.14 372.08 588.81 371.06 588.47 C371.06 587.81 371.06 587.15 371.06 586.47 C370.4 586.47 369.74 586.47 369.06 586.47 C369.06 585.81 369.06 585.15 369.06 584.47 C368.07 584.14 367.08 583.81 366.06 583.47 C366.06 582.81 366.06 582.15 366.06 581.47 C365.4 581.47 364.74 581.47 364.06 581.47 C364.06 580.81 364.06 580.15 364.06 579.47 C363.07 579.14 362.08 578.81 361.06 578.47 C361.06 577.81 361.06 577.15 361.06 576.47 C360.4 576.47 359.74 576.47 359.06 576.47 C359.06 575.81 359.06 575.15 359.06 574.47 C358.07 574.14 357.08 573.81 356.06 573.47 C356.06 572.81 356.06 572.15 356.06 571.47 C355.4 571.47 354.74 571.47 354.06 571.47 C354.06 570.81 354.06 570.15 354.06 569.47 C353.07 569.14 352.08 568.81 351.06 568.47 C351.06 567.81 351.06 567.15 351.06 566.47 C350.4 566.47 349.74 566.47 349.06 566.47 C349.06 565.81 349.06 565.15 349.06 564.47 C348.07 564.14 347.08 563.81 346.06 563.47 C346.06 562.81 346.06 562.15 346.06 561.47 C345.4 561.47 344.74 561.47 344.06 561.47 C344.06 560.81 344.06 560.15 344.06 559.47 C343.07 559.14 342.08 558.81 341.06 558.47 C341.06 557.81 341.06 557.15 341.06 556.47 C340.4 556.47 339.74 556.47 339.06 556.47 C339.06 555.81 339.06 555.15 339.06 554.47 C338.07 554.14 337.08 553.81 336.06 553.47 C336.06 552.81 336.06 552.15 336.06 551.47 C335.4 551.47 334.74 551.47 334.06 551.47 C334.06 550.81 334.06 550.15 334.06 549.47 C333.07 549.14 332.08 548.81 331.06 548.47 C331.06 547.81 331.06 547.15 331.06 546.47 C330.4 546.47 329.74 546.47 329.06 546.47 C329.06 545.81 329.06 545.15 329.06 544.47 C328.07 544.14 327.08 543.81 326.06 543.47 C326.06 542.81 326.06 542.15 326.06 541.47 C325.42 541.2 324.78 540.93 324.12 540.65 C322.06 539.47 322.06 539.47 321.06 536.47 C320.4 536.14 319.74 535.81 319.06 535.47 C317.06 534.47 317.06 534.47 316.06 531.47 C315.4 531.14 314.74 530.81 314.06 530.47 C312.06 529.47 312.06 529.47 311.06 526.47 C310.4 526.14 309.74 525.81 309.06 525.47 C307.06 524.47 307.06 524.47 306.06 521.47 C305.4 521.14 304.74 520.81 304.06 520.47 C302.06 519.47 302.06 519.47 301.06 516.47 C300.4 516.14 299.74 515.81 299.06 515.47 C297.06 514.47 297.06 514.47 296.06 511.47 C295.4 511.14 294.74 510.81 294.06 510.47 C292.06 509.47 292.06 509.47 291.06 506.47 C290.4 506.14 289.74 505.81 289.06 505.47 C287.06 504.47 287.06 504.47 286.06 501.47 C285.4 501.14 284.74 500.81 284.06 500.47 C282.06 499.47 282.06 499.47 281.06 496.47 C280.4 496.14 279.74 495.81 279.06 495.47 C277.06 494.47 277.06 494.47 276.06 491.47 C275.4 491.14 274.74 490.81 274.06 490.47 C272.06 489.47 272.06 489.47 271.06 486.47 C270.4 486.14 269.74 485.81 269.06 485.47 C267.06 484.47 267.06 484.47 266.06 481.47 C265.4 481.14 264.74 480.81 264.06 480.47 C262.06 479.47 262.06 479.47 261.06 476.47 C260.4 476.14 259.74 475.81 259.06 475.47 C257.06 474.47 257.06 474.47 256.06 471.47 C255.4 471.14 254.74 470.81 254.06 470.47 C252.06 469.47 252.06 469.47 251.06 466.47 C250.4 466.14 249.74 465.81 249.06 465.47 C247.06 464.47 247.06 464.47 246.06 461.47 C245.4 461.14 244.74 460.81 244.06 460.47 C242.06 459.47 242.06 459.47 241.06 456.47 C240.4 456.14 239.74 455.81 239.06 455.47 C237.06 454.47 237.06 454.47 236.06 451.47 C235.4 451.14 234.74 450.81 234.06 450.47 C232.06 449.47 232.06 449.47 231.06 446.47 C230.4 446.14 229.74 445.81 229.06 445.47 C227.06 444.47 227.06 444.47 226.06 441.47 C225.4 441.14 224.74 440.81 224.06 440.47 C222.06 439.47 222.06 439.47 221.06 436.47 C220.4 436.14 219.74 435.81 219.06 435.47 C217.06 434.47 217.06 434.47 216.06 431.47 C215.4 431.14 214.74 430.81 214.06 430.47 C212.06 429.47 212.06 429.47 211.06 426.47 C210.4 426.14 209.74 425.81 209.06 425.47 C207.06 424.47 207.06 424.47 206.06 421.47 C205.4 421.14 204.74 420.81 204.06 420.47 C202.06 419.47 202.06 419.47 201.06 416.47 C200.4 416.14 199.74 415.81 199.06 415.47 C197.06 414.47 197.06 414.47 196.06 411.47 C195.4 411.14 194.74 410.81 194.06 410.47 C192.06 409.47 192.06 409.47 191.06 406.47 C190.4 406.14 189.74 405.81 189.06 405.47 C187.06 404.47 187.06 404.47 186.06 401.47 C185.4 401.14 184.74 400.81 184.06 400.47 C182.06 399.47 182.06 399.47 181.06 396.47 C180.4 396.14 179.74 395.81 179.06 395.47 C177.06 394.47 177.06 394.47 176.06 391.47 C175.4 391.14 174.74 390.81 174.06 390.47 C172.06 389.47 172.06 389.47 171.06 386.47 C170.4 386.14 169.74 385.81 169.06 385.47 C167.06 384.47 167.06 384.47 166.06 381.47 C165.4 381.14 164.74 380.81 164.06 380.47 C162.06 379.47 162.06 379.47 161.06 376.47 C160.4 376.14 159.74 375.81 159.06 375.47 C157.06 374.47 157.06 374.47 156.06 371.47 C155.4 371.14 154.74 370.81 154.06 370.47 C152.06 369.47 152.06 369.47 151.06 366.47 C150.4 366.14 149.74 365.81 149.06 365.47 C147.06 364.47 147.06 364.47 146.06 361.47 C145.4 361.14 144.74 360.81 144.06 360.47 C142.06 359.47 142.06 359.47 141.06 356.47 C140.4 356.14 139.74 355.81 139.06 355.47 C137.06 354.47 137.06 354.47 136.06 351.47 C135.4 351.14 134.74 350.81 134.06 350.47 C132.06 349.47 132.06 349.47 131.06 346.47 C130.4 346.14 129.74 345.81 129.06 345.47 C127.06 344.47 127.06 344.47 126.06 341.47 C125.4 341.14 124.74 340.81 124.06 340.47 C122.06 339.47 122.06 339.47 121.06 336.47 C120.4 336.14 119.74 335.81 119.06 335.47 C117.06 334.47 117.06 334.47 116.06 331.47 C115.4 331.14 114.74 330.81 114.06 330.47 C112.06 329.47 112.06 329.47 111.06 326.47 C110.4 326.14 109.74 325.81 109.06 325.47 C107.06 324.47 107.06 324.47 106.06 321.47 C105.4 321.14 104.74 320.81 104.06 320.47 C102.06 319.47 102.06 319.47 101.06 316.47 C100.4 316.14 99.74 315.81 99.06 315.47 C97.06 314.47 97.06 314.47 96.06 311.47 C95.4 311.14 94.74 310.81 94.06 310.47 C92.06 309.47 92.06 309.47 91.06 306.47 C90.4 306.14 89.74 305.81 89.06 305.47 C87.06 304.47 87.06 304.47 86.06 301.47 C85.4 301.14 84.74 300.81 84.06 300.47 C82.06 299.47 82.06 299.47 81.06 296.47 C80.4 296.14 79.74 295.81 79.06 295.47 C77.06 294.47 77.06 294.47 76.06 291.47 C75.4 291.14 74.74 290.81 74.06 290.47 C72.06 289.47 72.06 289.47 71.06 286.47 C70.4 286.14 69.74 285.81 69.06 285.47 C67.06 284.47 67.06 284.47 66.06 281.47 C65.4 281.14 64.74 280.81 64.06 280.47 C62.06 279.47 62.06 279.47 61.06 276.47 C60.4 276.14 59.74 275.81 59.06 275.47 C57.06 274.47 57.06 274.47 56.06 271.47 C55.4 271.14 54.74 270.81 54.06 270.47 C52.06 269.47 52.06 269.47 51.06 266.47 C50.4 266.14 49.74 265.81 49.06 265.47 C47.06 264.47 47.06 264.47 46.06 261.47 C45.4 261.14 44.74 260.81 44.06 260.47 C42.06 259.47 42.06 259.47 41.06 256.47 C40.4 256.14 39.74 255.81 39.06 255.47 C37.06 254.47 37.06 254.47 36.06 251.47 C35.4 251.14 34.74 250.81 34.06 250.47 C32.06 249.47 32.06 249.47 31.06 246.47 C30.4 246.14 29.74 245.81 29.06 245.47 C27.06 244.47 27.06 244.47 26.06 241.47 C25.4 241.14 24.74 240.81 24.06 240.47 C22.06 239.47 22.06 239.47 21.06 236.47 C20.4 236.14 19.74 235.81 19.06 235.47 C17.06 234.47 17.06 234.47 16.06 231.47 C15.4 231.14 14.74 230.81 14.06 230.47 C12.06 229.47 12.06 229.47 11.06 226.47 C10.4 226.14 9.74 225.81 9.06 225.47 C7.06 224.47 7.06 224.47 6.06 221.47 C5.4 221.14 4.74 220.81 4.06 220.47 C2.06 219.47 2.06 219.47 1.06 216.47 C0.4 216.14 -0.26 215.81 -0.94 215.47 C-2.94 214.47 -2.94 214.47 -3.94 211.47 C-4.6 211.14 -5.26 210.81 -5.94 210.47 C-7.94 209.47 -7.94 209.47 -8.94 206.47 C-9.6 206.14 -10.26 205.81 -10.94 205.47 C-12.94 204.47 -12.94 204.47 -13.94 201.47 C-14.6 201.14 -15.26 200.81 -15.94 200.47 C-17.94 199.47 -17.94 199.47 -18.94 196.47 C-19.6 196.14 -20.26 195.81 -20.94 195.47 C-22.94 194.47 -22.94 194.47 -23.94 191.47 C-24.6 191.14 -25.26 190.81 -25.94 190.47 C-27.94 189.47 -27.94 189.47 -28.94 186.47 C-29.6 186.14 -30.26 185.81 -30.94 185.47 C-32.94 184.47 -32.94 184.47 -33.94 181.47 C-34.6 181.14 -35.26 180.81 -35.94 180.47 C-37.94 179.47 -37.94 179.47 -38.94 176.47 C-39.6 176.14 -40.26 175.81 -40.94 175.47 C-42.94 174.47 -42.94 174.47 -43.94 171.47 C-44.6 171.14 -45.26 170.81 -45.94 170.47 C-47.94 169.47 -47.94 169.47 -48.94 166.47 C-49.6 166.14 -50.26 165.81 -50.94 165.47 C-52.94 164.47 -52.94 164.47 -53.94 161.47 C-54.6 161.14 -55.26 160.81 -55.94 160.47 C-57.94 159.47 -57.94 159.47 -58.94 156.47 C-59.56 156.16 -60.18 155.85 -60.82 155.53 C-63.38 154.25 -64.44 152.87 -65.94 150.47 C-65.94 149.81 -65.94 149.15 -65.94 148.47 C-66.6 148.47 -67.26 148.47 -67.94 148.47 C-84.58 130.03 -89.5 106.55 -88.94 82.47 C-88.93 81.69 -88.91 80.9 -88.89 80.1 C-87.37 57.69 -74.69 37.64 -58.94 22.47 C-52.42 16.82 -45.69 12.01 -38.01 8.09 C-37.41 7.78 -36.82 7.47 -36.2 7.15 C-24.35 1.39 -12.97 -0.17 0 0 Z M624.06 588.47 C625.06 590.47 625.06 590.47 625.06 590.47 Z M629.06 595.47 C630.06 599.47 630.06 599.47 630.06 599.47 Z M633.06 605.47 C633.72 606.79 634.38 608.11 635.06 609.47 C635.06 608.15 635.06 606.83 635.06 605.47 C634.4 605.47 633.74 605.47 633.06 605.47 Z M634.06 610.47 C634.72 613.44 635.38 616.41 636.06 619.47 C636.39 619.47 636.72 619.47 637.06 619.47 C637.31 616.05 637.31 616.05 637.06 612.47 C636.07 611.81 635.08 611.15 634.06 610.47 Z M638.06 622.47 C638.39 627.09 638.72 631.71 639.06 636.47 C639.39 636.47 639.72 636.47 640.06 636.47 C640.06 631.85 640.06 627.23 640.06 622.47 C639.4 622.47 638.74 622.47 638.06 622.47 Z M639.06 640.47 C639.06 645.42 639.06 650.37 639.06 655.47 C639.39 655.47 639.72 655.47 640.06 655.47 C640.06 650.52 640.06 645.57 640.06 640.47 C639.73 640.47 639.4 640.47 639.06 640.47 Z M637.06 657.47 C637.39 658.13 637.72 658.79 638.06 659.47 C638.39 658.81 638.72 658.15 639.06 657.47 C638.4 657.47 637.74 657.47 637.06 657.47 Z M636.06 659.47 C635.73 662.44 635.4 665.41 635.06 668.47 C635.72 668.47 636.38 668.47 637.06 668.47 C637.06 665.5 637.06 662.53 637.06 659.47 C636.73 659.47 636.4 659.47 636.06 659.47 Z M634.06 670.47 C633.73 672.12 633.4 673.77 633.06 675.47 C633.72 675.47 634.38 675.47 635.06 675.47 C635.06 673.82 635.06 672.17 635.06 670.47 C634.73 670.47 634.4 670.47 634.06 670.47 Z M631.06 676.47 C630.73 677.79 630.4 679.11 630.06 680.47 C630.72 680.47 631.38 680.47 632.06 680.47 C631.73 679.15 631.4 677.83 631.06 676.47 Z M629.06 680.47 C629.06 682.12 629.06 683.77 629.06 685.47 C629.39 685.47 629.72 685.47 630.06 685.47 C630.06 683.82 630.06 682.17 630.06 680.47 C629.73 680.47 629.4 680.47 629.06 680.47 Z M627.06 685.47 C626.07 686.95 626.07 686.95 625.06 688.47 C626.38 687.81 627.7 687.15 629.06 686.47 C628.4 686.14 627.74 685.81 627.06 685.47 Z M624.06 690.47 C625.06 692.47 625.06 692.47 625.06 692.47 Z M621.06 693.47 C434.28 880.25 247.5 1067.03 55.06 1259.47 C55.39 1260.13 55.72 1260.79 56.06 1261.47 C243.17 1074.36 430.28 887.25 623.06 694.47 C622.4 694.14 621.74 693.81 621.06 693.47 Z M50.06 1262.47 C54.06 1263.47 54.06 1263.47 54.06 1263.47 Z M48.06 1264.47 C48.06 1265.46 48.06 1266.45 48.06 1267.47 C48.72 1266.48 49.38 1265.49 50.06 1264.47 C49.4 1264.47 48.74 1264.47 48.06 1264.47 Z M42.06 1267.47 C42.06 1267.8 42.06 1268.13 42.06 1268.47 C43.71 1268.47 45.36 1268.47 47.06 1268.47 C47.06 1268.14 47.06 1267.81 47.06 1267.47 C45.41 1267.47 43.76 1267.47 42.06 1267.47 Z M41.06 1268.47 C40.4 1269.13 39.74 1269.79 39.06 1270.47 C40.05 1270.47 41.04 1270.47 42.06 1270.47 C41.73 1269.81 41.4 1269.15 41.06 1268.47 Z M-25.94 1273.47 C-25.94 1274.13 -25.94 1274.79 -25.94 1275.47 C-24.29 1275.47 -22.64 1275.47 -20.94 1275.47 C-23.32 1274.05 -23.32 1274.05 -25.94 1273.47 Z " fill="#FBFBFB" transform="translate(362.942626953125,-0.466552734375)"/>
<path d="M0 0 C0.99 0.33 1.98 0.66 3 1 C3 1.66 3 2.32 3 3 C3.66 3 4.32 3 5 3 C5.62 4.86 5.62 4.86 6.25 6.75 C7.6 10.37 9.12 12.39 12 15 C13.5 17.5 13.5 17.5 15 20 C15.72 20.72 16.44 21.44 17.19 22.19 C17.79 22.79 18.38 23.38 19 24 C19 24.66 19 25.32 19 26 C19.53 26.21 20.07 26.42 20.62 26.63 C23.94 28.54 26.43 31.15 29.1 33.85 C30.01 34.75 30.01 34.75 30.94 35.68 C32.98 37.71 35.01 39.74 37.04 41.78 C38.5 43.24 39.96 44.69 41.42 46.15 C45.38 50.1 49.34 54.06 53.29 58.02 C57.43 62.16 61.56 66.3 65.7 70.43 C72.65 77.38 79.59 84.32 86.53 91.27 C94.57 99.32 102.61 107.36 110.66 115.39 C117.56 122.28 124.45 129.18 131.35 136.08 C135.47 140.2 139.59 144.32 143.71 148.44 C147.59 152.31 151.46 156.18 155.33 160.06 C156.75 161.49 158.17 162.91 159.6 164.34 C161.54 166.27 163.48 168.21 165.41 170.15 C165.98 170.72 166.55 171.29 167.15 171.88 C171 175.77 171 175.77 171 178 C171.54 178.22 172.09 178.44 172.65 178.66 C175.79 180.45 178.14 182.86 180.66 185.4 C181.22 185.96 181.79 186.52 182.37 187.09 C184.26 188.98 186.15 190.87 188.04 192.77 C189.41 194.13 190.78 195.49 192.14 196.85 C195.91 200.61 199.67 204.37 203.43 208.13 C207.49 212.18 211.55 216.22 215.6 220.27 C224.48 229.12 233.35 237.98 242.21 246.84 C247.74 252.37 253.28 257.9 258.81 263.43 C274.13 278.72 289.44 294.02 304.75 309.32 C305.24 309.81 305.73 310.3 306.23 310.81 C308.22 312.79 310.2 314.78 312.18 316.76 C313.68 318.25 315.17 319.75 316.67 321.24 C317.16 321.73 317.65 322.23 318.16 322.74 C333.67 338.25 349.2 353.75 364.73 369.24 C382.17 386.64 399.6 404.05 417.02 421.47 C426.25 430.69 435.48 439.91 444.72 449.13 C452.58 456.97 460.44 464.82 468.29 472.68 C472.29 476.69 476.3 480.7 480.32 484.7 C484 488.36 487.67 492.03 491.32 495.7 C492.65 497.04 493.98 498.36 495.32 499.69 C497.13 501.48 498.93 503.29 500.72 505.1 C501.25 505.61 501.77 506.13 502.32 506.66 C504.5 508.9 506 511 507.3 513.84 C506.79 519.13 503.1 521.85 499.41 525.44 C498.58 526.28 497.75 527.12 496.89 527.99 C494.56 530.33 492.22 532.65 489.87 534.97 C487.32 537.49 484.79 540.03 482.26 542.57 C477.82 547.02 473.37 551.46 468.91 555.88 C462.27 562.47 455.66 569.08 449.05 575.69 C437.93 586.8 426.79 597.91 415.65 609 C404.61 619.99 393.58 630.98 382.56 641.99 C381.87 642.68 381.19 643.36 380.48 644.06 C377 647.54 373.53 651.01 370.05 654.48 C345.4 679.1 320.74 703.7 296.07 728.29 C294.58 729.78 293.09 731.27 291.59 732.76 C290.85 733.49 290.11 734.23 289.35 734.99 C285.61 738.72 281.87 742.45 278.13 746.18 C277.39 746.92 276.64 747.66 275.88 748.42 C258.65 765.6 241.42 782.78 224.19 799.97 C223.45 800.7 222.71 801.44 221.95 802.2 C205.11 819 188.28 835.8 171.44 852.6 C170.74 853.31 170.03 854.01 169.3 854.74 C162.94 861.09 156.58 867.44 150.22 873.79 C133.66 890.32 117.1 906.84 100.53 923.35 C90.14 933.71 79.75 944.07 69.37 954.43 C62.78 961 56.2 967.56 49.61 974.12 C45.21 978.49 40.82 982.87 36.44 987.26 C33.93 989.76 31.43 992.26 28.92 994.75 C26.22 997.43 23.53 1000.12 20.84 1002.81 C20.05 1003.59 19.26 1004.37 18.45 1005.17 C17.38 1006.25 17.38 1006.25 16.29 1007.34 C15.68 1007.96 15.06 1008.57 14.42 1009.2 C12.86 1011.17 12.53 1012.58 12 1015 C10.69 1016.35 9.35 1017.69 8 1019 C7.67 1019.99 7.34 1020.98 7 1022 C6.34 1022 5.68 1022 5 1022 C5.1 1022.76 5.21 1023.53 5.31 1024.31 C5.21 1025.2 5.11 1026.09 5 1027 C2.5 1028.81 2.5 1028.81 0 1030 C1.62 1021.84 7.3 1013 13 1007 C13.66 1007 14.32 1007 15 1007 C15.27 1006.24 15.54 1005.47 15.81 1004.69 C16.95 1002.11 17.81 1000.73 20 999 C20.66 999 21.32 999 22 999 C22.27 998.36 22.54 997.72 22.81 997.06 C24 995 24 995 27 994 C27.33 993.34 27.66 992.68 28 992 C29 990 29 990 32 989 C32.33 988.34 32.66 987.68 33 987 C34 985 34 985 37 984 C37.33 983.34 37.66 982.68 38 982 C39 980 39 980 42 979 C42.33 978.34 42.66 977.68 43 977 C44 975 44 975 47 974 C47.33 973.34 47.66 972.68 48 972 C49 970 49 970 52 969 C52.33 968.34 52.66 967.68 53 967 C54 965 54 965 57 964 C57.33 963.34 57.66 962.68 58 962 C59 960 59 960 62 959 C62.33 958.34 62.66 957.68 63 957 C64 955 64 955 67 954 C67.33 953.34 67.66 952.68 68 952 C69 950 69 950 72 949 C72.33 948.34 72.66 947.68 73 947 C74 945 74 945 77 944 C77.33 943.34 77.66 942.68 78 942 C79 940 79 940 82 939 C82.33 938.34 82.66 937.68 83 937 C84 935 84 935 87 934 C87.33 933.34 87.66 932.68 88 932 C89 930 89 930 92 929 C92.33 928.34 92.66 927.68 93 927 C94 925 94 925 97 924 C97.33 923.34 97.66 922.68 98 922 C99 920 99 920 102 919 C102.33 918.34 102.66 917.68 103 917 C104 915 104 915 107 914 C107.33 913.34 107.66 912.68 108 912 C109 910 109 910 112 909 C112.33 908.34 112.66 907.68 113 907 C114 905 114 905 117 904 C117.33 903.34 117.66 902.68 118 902 C119 900 119 900 122 899 C122.33 898.34 122.66 897.68 123 897 C124 895 124 895 127 894 C127.33 893.34 127.66 892.68 128 892 C129 890 129 890 132 889 C132.33 888.34 132.66 887.68 133 887 C134 885 134 885 137 884 C137.33 883.34 137.66 882.68 138 882 C139 880 139 880 142 879 C142.33 878.34 142.66 877.68 143 877 C144 875 144 875 147 874 C147.33 873.34 147.66 872.68 148 872 C149 870 149 870 152 869 C152.33 868.34 152.66 867.68 153 867 C154 865 154 865 157 864 C157.33 863.34 157.66 862.68 158 862 C159 860 159 860 162 859 C162.33 858.34 162.66 857.68 163 857 C164 855 164 855 167 854 C167.33 853.34 167.66 852.68 168 852 C169 850 169 850 172 849 C172.33 848.34 172.66 847.68 173 847 C174 845 174 845 177 844 C177.33 843.34 177.66 842.68 178 842 C179 840 179 840 182 839 C182.33 838.34 182.66 837.68 183 837 C184 835 184 835 187 834 C187.33 833.34 187.66 832.68 188 832 C189 830 189 830 192 829 C192.33 828.34 192.66 827.68 193 827 C194 825 194 825 197 824 C197.33 823.34 197.66 822.68 198 822 C199 820 199 820 202 819 C202.33 818.34 202.66 817.68 203 817 C204 815 204 815 207 814 C207.33 813.34 207.66 812.68 208 812 C209 810 209 810 212 809 C212.33 808.34 212.66 807.68 213 807 C214 805 214 805 217 804 C217.33 803.34 217.66 802.68 218 802 C219 800 219 800 222 799 C222.33 798.34 222.66 797.68 223 797 C224 795 224 795 227 794 C227.33 793.34 227.66 792.68 228 792 C229 790 229 790 232 789 C232.33 788.34 232.66 787.68 233 787 C234 785 234 785 237 784 C237.33 783.34 237.66 782.68 238 782 C239 780 239 780 242 779 C242.33 778.34 242.66 777.68 243 777 C244 775 244 775 247 774 C247.33 773.34 247.66 772.68 248 772 C249 770 249 770 252 769 C252.33 768.34 252.66 767.68 253 767 C254 765 254 765 257 764 C257.33 763.34 257.66 762.68 258 762 C259 760 259 760 262 759 C262.33 758.34 262.66 757.68 263 757 C264 755 264 755 267 754 C267.33 753.34 267.66 752.68 268 752 C269 750 269 750 272 749 C272.33 748.34 272.66 747.68 273 747 C274 745 274 745 277 744 C277.33 743.34 277.66 742.68 278 742 C279 740 279 740 282 739 C282.33 738.34 282.66 737.68 283 737 C284 735 284 735 287 734 C287.33 733.34 287.66 732.68 288 732 C289 730 289 730 292 729 C292.33 728.34 292.66 727.68 293 727 C294 725 294 725 297 724 C297.33 723.34 297.66 722.68 298 722 C299 720 299 720 302 719 C302.33 718.34 302.66 717.68 303 717 C304 715 304 715 307 714 C307.33 713.34 307.66 712.68 308 712 C309 710 309 710 312 709 C312.33 708.34 312.66 707.68 313 707 C314 705 314 705 317 704 C317.33 703.34 317.66 702.68 318 702 C319 700 319 700 322 699 C322.33 698.34 322.66 697.68 323 697 C324 695 324 695 327 694 C327.33 693.34 327.66 692.68 328 692 C329 690 329 690 332 689 C332.33 688.34 332.66 687.68 333 687 C334 685 334 685 337 684 C337.33 683.34 337.66 682.68 338 682 C339 680 339 680 342 679 C342.33 678.34 342.66 677.68 343 677 C344 675 344 675 347 674 C347.33 673.34 347.66 672.68 348 672 C349 670 349 670 352 669 C352.33 668.34 352.66 667.68 353 667 C354 665 354 665 357 664 C357.33 663.34 357.66 662.68 358 662 C359 660 359 660 362 659 C362.33 658.34 362.66 657.68 363 657 C364 655 364 655 367 654 C367.33 653.34 367.66 652.68 368 652 C369 650 369 650 372 649 C372.33 648.34 372.66 647.68 373 647 C374 645 374 645 377 644 C377.33 643.34 377.66 642.68 378 642 C379 640 379 640 382 639 C382.33 638.34 382.66 637.68 383 637 C384 635 384 635 387 634 C387.33 633.34 387.66 632.68 388 632 C389 630 389 630 392 629 C392.33 628.34 392.66 627.68 393 627 C394 625 394 625 397 624 C397.33 623.34 397.66 622.68 398 622 C399 620 399 620 402 619 C402.33 618.34 402.66 617.68 403 617 C404 615 404 615 407 614 C407.33 613.01 407.66 612.02 408 611 C408.66 611 409.32 611 410 611 C410 610.34 410 609.68 410 609 C410.66 609 411.32 609 412 609 C412.33 608.01 412.66 607.02 413 606 C413.66 606 414.32 606 415 606 C415 605.34 415 604.68 415 604 C415.66 604 416.32 604 417 604 C417.33 603.01 417.66 602.02 418 601 C418.66 601 419.32 601 420 601 C420 600.34 420 599.68 420 599 C420.66 599 421.32 599 422 599 C422.33 598.01 422.66 597.02 423 596 C423.66 596 424.32 596 425 596 C425 595.34 425 594.68 425 594 C425.66 594 426.32 594 427 594 C427.33 593.01 427.66 592.02 428 591 C428.66 591 429.32 591 430 591 C430 590.34 430 589.68 430 589 C430.66 589 431.32 589 432 589 C432.33 588.01 432.66 587.02 433 586 C433.66 586 434.32 586 435 586 C435 585.34 435 584.68 435 584 C435.66 584 436.32 584 437 584 C437.33 583.01 437.66 582.02 438 581 C438.66 581 439.32 581 440 581 C440 580.34 440 579.68 440 579 C440.66 579 441.32 579 442 579 C442.33 578.01 442.66 577.02 443 576 C443.66 576 444.32 576 445 576 C445 575.34 445 574.68 445 574 C445.66 574 446.32 574 447 574 C447.33 573.01 447.66 572.02 448 571 C448.66 571 449.32 571 450 571 C450 570.34 450 569.68 450 569 C450.66 569 451.32 569 452 569 C452.33 568.01 452.66 567.02 453 566 C453.66 566 454.32 566 455 566 C455 565.34 455 564.68 455 564 C455.66 564 456.32 564 457 564 C457.33 563.01 457.66 562.02 458 561 C458.66 561 459.32 561 460 561 C460 560.34 460 559.68 460 559 C460.66 559 461.32 559 462 559 C462.33 558.01 462.66 557.02 463 556 C463.66 556 464.32 556 465 556 C465 555.34 465 554.68 465 554 C465.66 554 466.32 554 467 554 C467.33 553.01 467.66 552.02 468 551 C468.66 551 469.32 551 470 551 C470 550.34 470 549.68 470 549 C470.66 549 471.32 549 472 549 C472.33 548.01 472.66 547.02 473 546 C473.66 546 474.32 546 475 546 C475 545.34 475 544.68 475 544 C475.66 544 476.32 544 477 544 C477.33 543.01 477.66 542.02 478 541 C478.66 541 479.32 541 480 541 C480 540.34 480 539.68 480 539 C480.66 539 481.32 539 482 539 C482.33 538.01 482.66 537.02 483 536 C483.66 536 484.32 536 485 536 C485 535.34 485 534.68 485 534 C485.66 534 486.32 534 487 534 C487.33 533.01 487.66 532.02 488 531 C488.66 531 489.32 531 490 531 C490 530.34 490 529.68 490 529 C490.66 529 491.32 529 492 529 C492.33 528.01 492.66 527.02 493 526 C493.66 526 494.32 526 495 526 C495 525.34 495 524.68 495 524 C495.66 524 496.32 524 497 524 C497.33 523.01 497.66 522.02 498 521 C498.66 521 499.32 521 500 521 C500 520.34 500 519.68 500 519 C500.66 519 501.32 519 502 519 C502.8 515.71 503.1 514.29 502 511 C501.34 511 500.68 511 500 511 C500 510.34 500 509.68 500 509 C499.01 508.67 498.02 508.34 497 508 C497 507.34 497 506.68 497 506 C496.34 506 495.68 506 495 506 C495 505.34 495 504.68 495 504 C494.01 503.67 493.02 503.34 492 503 C492 502.34 492 501.68 492 501 C491.34 501 490.68 501 490 501 C490 500.34 490 499.68 490 499 C489.01 498.67 488.02 498.34 487 498 C487 497.34 487 496.68 487 496 C486.34 496 485.68 496 485 496 C485 495.34 485 494.68 485 494 C484.01 493.67 483.02 493.34 482 493 C482 492.34 482 491.68 482 491 C481.34 491 480.68 491 480 491 C480 490.34 480 489.68 480 489 C479.01 488.67 478.02 488.34 477 488 C477 487.34 477 486.68 477 486 C476.34 486 475.68 486 475 486 C475 485.34 475 484.68 475 484 C474.01 483.67 473.02 483.34 472 483 C472 482.34 472 481.68 472 481 C471.34 481 470.68 481 470 481 C470 480.34 470 479.68 470 479 C469.01 478.67 468.02 478.34 467 478 C467 477.34 467 476.68 467 476 C466.34 476 465.68 476 465 476 C465 475.34 465 474.68 465 474 C464.01 473.67 463.02 473.34 462 473 C462 472.34 462 471.68 462 471 C461.34 471 460.68 471 460 471 C460 470.34 460 469.68 460 469 C459.01 468.67 458.02 468.34 457 468 C457 467.34 457 466.68 457 466 C456.34 466 455.68 466 455 466 C455 465.34 455 464.68 455 464 C454.01 463.67 453.02 463.34 452 463 C452 462.34 452 461.68 452 461 C451.34 461 450.68 461 450 461 C450 460.34 450 459.68 450 459 C449.01 458.67 448.02 458.34 447 458 C447 457.34 447 456.68 447 456 C446.34 456 445.68 456 445 456 C445 455.34 445 454.68 445 454 C444.01 453.67 443.02 453.34 442 453 C442 452.34 442 451.68 442 451 C441.34 451 440.68 451 440 451 C440 450.34 440 449.68 440 449 C439.01 448.67 438.02 448.34 437 448 C437 447.34 437 446.68 437 446 C436.34 446 435.68 446 435 446 C435 445.34 435 444.68 435 444 C434.01 443.67 433.02 443.34 432 443 C432 442.34 432 441.68 432 441 C431.34 441 430.68 441 430 441 C430 440.34 430 439.68 430 439 C429.01 438.67 428.02 438.34 427 438 C427 437.34 427 436.68 427 436 C426.34 436 425.68 436 425 436 C425 435.34 425 434.68 425 434 C424.01 433.67 423.02 433.34 422 433 C422 432.34 422 431.68 422 431 C421.34 431 420.68 431 420 431 C420 430.34 420 429.68 420 429 C419.01 428.67 418.02 428.34 417 428 C417 427.34 417 426.68 417 426 C416.34 426 415.68 426 415 426 C415 425.34 415 424.68 415 424 C414.01 423.67 413.02 423.34 412 423 C412 422.34 412 421.68 412 421 C411.34 421 410.68 421 410 421 C410 420.34 410 419.68 410 419 C409.01 418.67 408.02 418.34 407 418 C407 417.34 407 416.68 407 416 C406.36 415.73 405.72 415.46 405.06 415.19 C403 414 403 414 402 411 C401.34 410.67 400.68 410.34 400 410 C398 409 398 409 397 406 C396.34 405.67 395.68 405.34 395 405 C393 404 393 404 392 401 C391.34 400.67 390.68 400.34 390 400 C388 399 388 399 387 396 C386.34 395.67 385.68 395.34 385 395 C383 394 383 394 382 391 C381.34 390.67 380.68 390.34 380 390 C378 389 378 389 377 386 C376.34 385.67 375.68 385.34 375 385 C373 384 373 384 372 381 C371.34 380.67 370.68 380.34 370 380 C368 379 368 379 367 376 C366.34 375.67 365.68 375.34 365 375 C363 374 363 374 362 371 C361.34 370.67 360.68 370.34 360 370 C358 369 358 369 357 366 C356.34 365.67 355.68 365.34 355 365 C353 364 353 364 352 361 C351.34 360.67 350.68 360.34 350 360 C348 359 348 359 347 356 C346.34 355.67 345.68 355.34 345 355 C343 354 343 354 342 351 C341.34 350.67 340.68 350.34 340 350 C338 349 338 349 337 346 C336.34 345.67 335.68 345.34 335 345 C333 344 333 344 332 341 C331.34 340.67 330.68 340.34 330 340 C328 339 328 339 327 336 C326.34 335.67 325.68 335.34 325 335 C323 334 323 334 322 331 C321.34 330.67 320.68 330.34 320 330 C318 329 318 329 317 326 C316.34 325.67 315.68 325.34 315 325 C313 324 313 324 312 321 C311.34 320.67 310.68 320.34 310 320 C308 319 308 319 307 316 C306.34 315.67 305.68 315.34 305 315 C303 314 303 314 302 311 C301.34 310.67 300.68 310.34 300 310 C298 309 298 309 297 306 C296.34 305.67 295.68 305.34 295 305 C293 304 293 304 292 301 C291.34 300.67 290.68 300.34 290 300 C288 299 288 299 287 296 C286.34 295.67 285.68 295.34 285 295 C283 294 283 294 282 291 C281.34 290.67 280.68 290.34 280 290 C278 289 278 289 277 286 C276.34 285.67 275.68 285.34 275 285 C273 284 273 284 272 281 C271.34 280.67 270.68 280.34 270 280 C268 279 268 279 267 276 C266.34 275.67 265.68 275.34 265 275 C263 274 263 274 262 271 C261.34 270.67 260.68 270.34 260 270 C258 269 258 269 257 266 C256.34 265.67 255.68 265.34 255 265 C253 264 253 264 252 261 C251.34 260.67 250.68 260.34 250 260 C248 259 248 259 247 256 C246.34 255.67 245.68 255.34 245 255 C243 254 243 254 242 251 C241.34 250.67 240.68 250.34 240 250 C238 249 238 249 237 246 C236.34 245.67 235.68 245.34 235 245 C233 244 233 244 232 241 C231.34 240.67 230.68 240.34 230 240 C228 239 228 239 227 236 C226.34 235.67 225.68 235.34 225 235 C223 234 223 234 222 231 C221.34 230.67 220.68 230.34 220 230 C218 229 218 229 217 226 C216.34 225.67 215.68 225.34 215 225 C213 224 213 224 212 221 C211.34 220.67 210.68 220.34 210 220 C208 219 208 219 207 216 C206.34 215.67 205.68 215.34 205 215 C203 214 203 214 202 211 C201.34 210.67 200.68 210.34 200 210 C198 209 198 209 197 206 C196.34 205.67 195.68 205.34 195 205 C193 204 193 204 192 201 C191.34 200.67 190.68 200.34 190 200 C188 199 188 199 187 196 C186.34 195.67 185.68 195.34 185 195 C183 194 183 194 182 191 C181.34 190.67 180.68 190.34 180 190 C178 189 178 189 177 186 C176.34 185.67 175.68 185.34 175 185 C173 184 173 184 172 181 C171.34 180.67 170.68 180.34 170 180 C168 179 168 179 167 176 C166.34 175.67 165.68 175.34 165 175 C163 174 163 174 162 171 C161.34 170.67 160.68 170.34 160 170 C158 169 158 169 157 166 C156.34 165.67 155.68 165.34 155 165 C153 164 153 164 152 161 C151.34 160.67 150.68 160.34 150 160 C148 159 148 159 147 156 C146.34 155.67 145.68 155.34 145 155 C143 154 143 154 142 151 C141.34 150.67 140.68 150.34 140 150 C138 149 138 149 137 146 C136.34 145.67 135.68 145.34 135 145 C133 144 133 144 132 141 C131.34 140.67 130.68 140.34 130 140 C128 139 128 139 127 136 C126.34 135.67 125.68 135.34 125 135 C123 134 123 134 122 131 C121.34 130.67 120.68 130.34 120 130 C118 129 118 129 117 126 C116.34 125.67 115.68 125.34 115 125 C113 124 113 124 112 121 C111.34 120.67 110.68 120.34 110 120 C108 119 108 119 107 116 C106.34 115.67 105.68 115.34 105 115 C103 114 103 114 102 111 C101.34 110.67 100.68 110.34 100 110 C98 109 98 109 97 106 C96.34 105.67 95.68 105.34 95 105 C93 104 93 104 92 101 C91.34 100.67 90.68 100.34 90 100 C88 99 88 99 87 96 C86.34 95.67 85.68 95.34 85 95 C83 94 83 94 82 91 C81.34 90.67 80.68 90.34 80 90 C78 89 78 89 77 86 C76.34 85.67 75.68 85.34 75 85 C73 84 73 84 72 81 C71.34 80.67 70.68 80.34 70 80 C68 79 68 79 67 76 C66.34 75.67 65.68 75.34 65 75 C63 74 63 74 62 71 C61.01 70.5 61.01 70.5 60 70 C58 69 58 69 57 66 C56.01 65.5 56.01 65.5 55 65 C53 64 53 64 52 61 C51.01 60.5 51.01 60.5 50 60 C48 59 48 59 47 56 C46.01 55.5 46.01 55.5 45 55 C43 54 43 54 42 51 C41.01 50.5 41.01 50.5 40 50 C38 49 38 49 37 46 C36.01 45.5 36.01 45.5 35 45 C33 44 33 44 32 41 C31.34 40.67 30.68 40.34 30 40 C28 39 28 39 27 36 C26.34 35.67 25.68 35.34 25 35 C23 34 23 34 22 31 C21.07 30.54 21.07 30.54 20.12 30.06 C17.56 28.78 16.51 27.41 15 25 C15 24.34 15 23.68 15 23 C14.34 23 13.68 23 13 23 C0 7.65 0 7.65 0 0 Z " fill="#000100" transform="translate(282,125)"/>
<path d="M0 0 C4 0.62 6.8 2.6 10 5 C10 5.66 10 6.32 10 7 C10.93 7.46 10.93 7.46 11.88 7.94 C13.25 8.62 14.62 9.31 16 10 C16 10.66 16 11.32 16 12 C16.58 12.25 17.15 12.5 17.75 12.76 C20.29 14.16 21.98 15.73 24.03 17.78 C24.83 18.57 25.63 19.37 26.45 20.18 C27.32 21.06 28.2 21.94 29.1 22.85 C30.04 23.79 30.99 24.73 31.93 25.67 C34.54 28.27 37.14 30.88 39.74 33.48 C42.57 36.31 45.4 39.14 48.23 41.96 C53.19 46.92 58.15 51.88 63.11 56.85 C70.48 64.23 77.86 71.6 85.24 78.97 C98.42 92.14 111.59 105.31 124.76 118.49 C136.28 130.01 147.81 141.54 159.33 153.06 C160.1 153.83 160.86 154.59 161.65 155.38 C164.75 158.48 167.84 161.58 170.94 164.67 C200.04 193.76 229.12 222.85 258.21 251.95 C284.07 277.82 309.94 303.68 335.81 329.55 C364.85 358.58 393.89 387.61 422.93 416.66 C426.02 419.75 429.11 422.84 432.2 425.94 C432.96 426.7 433.73 427.46 434.51 428.24 C446.03 439.77 457.55 451.29 469.08 462.81 C482.18 475.9 495.27 488.99 508.36 502.09 C515.69 509.43 523.03 516.77 530.37 524.1 C535.26 528.99 540.15 533.88 545.04 538.78 C547.83 541.57 550.62 544.37 553.42 547.15 C556.42 550.15 559.41 553.15 562.41 556.15 C563.29 557.03 564.17 557.91 565.08 558.82 C565.87 559.61 566.66 560.4 567.47 561.22 C568.16 561.91 568.84 562.59 569.55 563.3 C571 565 571 565 571 567 C571.66 567 572.32 567 573 567 C576 570.46 576 570.46 576 573 C576.66 573 577.32 573 578 573 C580.3 575.56 581 576.48 581 580 C581.66 580 582.32 580 583 580 C582.67 580.99 582.34 581.98 582 583 C579 581 579 581 578.31 578.38 C578.21 577.59 578.11 576.81 578 576 C577.42 575.92 576.84 575.84 576.24 575.75 C573.3 574.76 572.18 573.3 570.19 570.94 C569.49 570.13 568.8 569.31 568.08 568.48 C567.05 567.25 567.05 567.25 566 566 C562.16 561.45 558.36 557.35 553.76 553.57 C551.13 551.22 548.91 548.56 546.62 545.88 C544.54 543.46 542.29 541.23 540 539 C457.5 456.5 375 374 22.75 21.69 C19.55 18.56 16.19 15.67 12.79 12.77 C12.2 12.19 11.61 11.6 11 11 C11 10.34 11 9.68 11 9 C8.36 7.59 5.93 6.63 3 6 C3 5.01 3 4.02 3 3 C2.01 2.67 1.02 2.34 0 2 C0 1.34 0 0.68 0 0 Z " fill="#000100" transform="translate(410,12)"/>
<path d="M0 0 C0.33 0.99 0.66 1.98 1 3 C0.34 3 -0.32 3 -1 3 C-1.12 3.6 -1.25 4.2 -1.38 4.81 C-2 7 -2 7 -4 10 C-4.66 10 -5.32 10 -6 10 C-6.31 10.62 -6.62 11.24 -6.94 11.88 C-7.62 13.25 -8.31 14.62 -9 16 C-9.66 16 -10.32 16 -11 16 C-11.38 16.87 -11.38 16.87 -11.76 17.75 C-13.16 20.29 -14.73 21.98 -16.78 24.03 C-17.57 24.83 -18.37 25.63 -19.18 26.45 C-20.06 27.32 -20.94 28.2 -21.85 29.1 C-22.79 30.04 -23.73 30.99 -24.67 31.93 C-27.27 34.54 -29.88 37.14 -32.48 39.74 C-35.31 42.57 -38.14 45.4 -40.96 48.23 C-45.92 53.19 -50.88 58.15 -55.85 63.11 C-63.23 70.48 -70.6 77.86 -77.97 85.24 C-91.14 98.42 -104.31 111.59 -117.49 124.76 C-129.01 136.28 -140.54 147.81 -152.06 159.33 C-152.83 160.1 -153.59 160.86 -154.38 161.65 C-157.48 164.75 -160.58 167.84 -163.67 170.94 C-192.76 200.04 -221.85 229.12 -250.95 258.21 C-276.82 284.07 -302.68 309.94 -328.55 335.81 C-357.58 364.85 -386.61 393.89 -415.66 422.93 C-418.75 426.02 -421.84 429.11 -424.94 432.2 C-425.7 432.96 -426.46 433.73 -427.24 434.51 C-438.77 446.03 -450.29 457.55 -461.81 469.08 C-474.9 482.18 -487.99 495.27 -501.09 508.36 C-508.43 515.69 -515.77 523.03 -523.1 530.37 C-527.99 535.26 -532.88 540.15 -537.78 545.04 C-540.57 547.83 -543.37 550.62 -546.15 553.42 C-549.15 556.42 -552.15 559.41 -555.15 562.41 C-556.03 563.29 -556.91 564.17 -557.82 565.08 C-559.01 566.26 -559.01 566.26 -560.22 567.47 C-560.91 568.16 -561.59 568.84 -562.3 569.55 C-564 571 -564 571 -566 571 C-566 571.66 -566 572.32 -566 573 C-569.46 576 -569.46 576 -572 576 C-572 576.66 -572 577.32 -572 578 C-573.43 579.32 -573.43 579.32 -575.31 580.69 C-576.23 581.37 -576.23 581.37 -577.18 582.07 C-577.78 582.38 -578.38 582.69 -579 583 C-579.99 582.67 -580.98 582.34 -582 582 C-581.38 580.12 -581.38 580.12 -580 578 C-579.07 577.71 -578.14 577.41 -577.19 577.11 C-573.73 575.91 -572.17 574.67 -569.61 572.11 C-568.78 571.29 -567.95 570.47 -567.09 569.63 C-566.2 568.72 -565.3 567.81 -564.38 566.88 C-563.4 565.91 -562.42 564.93 -561.44 563.96 C-558.75 561.29 -556.07 558.59 -553.39 555.9 C-550.47 552.98 -547.55 550.06 -544.62 547.15 C-539.49 542.03 -534.37 536.91 -529.26 531.79 C-521.65 524.17 -514.03 516.56 -506.41 508.95 C-492.81 495.37 -479.21 481.77 -465.62 468.17 C-453.73 456.27 -441.84 444.37 -429.94 432.47 C-429.15 431.69 -428.36 430.9 -427.55 430.09 C-424.35 426.89 -421.15 423.69 -417.95 420.49 C-387.91 390.47 -357.89 360.43 -327.87 330.39 C-301.18 303.68 -274.48 276.98 -247.77 250.29 C-217.79 220.33 -187.81 190.36 -157.84 160.37 C-154.64 157.18 -151.45 153.99 -148.26 150.79 C-147.47 150.01 -146.69 149.22 -145.88 148.41 C-133.99 136.52 -122.09 124.63 -110.19 112.74 C-96.67 99.23 -83.16 85.71 -69.65 72.18 C-62.09 64.61 -54.52 57.04 -46.94 49.47 C-41.88 44.43 -36.84 39.37 -31.8 34.32 C-28.92 31.43 -26.04 28.55 -23.15 25.67 C-20.52 23.06 -17.91 20.44 -15.3 17.81 C-13.91 16.41 -12.51 15.03 -11.11 13.64 C-10.29 12.82 -9.48 11.99 -8.64 11.14 C-7.93 10.43 -7.22 9.73 -6.49 8.99 C-4.6 6.88 -4.6 6.88 -5 3 C-2.5 1.25 -2.5 1.25 0 0 Z " fill="#000100" transform="translate(992,685)"/>
<path d="M0 0 C0.66 0.33 1.32 0.66 2 1 C2 1.66 2 2.32 2 3 C3.32 2.67 4.64 2.34 6 2 C6.66 3.32 7.32 4.64 8 6 C9.65 5.67 11.3 5.34 13 5 C13.33 5.99 13.66 6.98 14 8 C15.11 7.79 16.23 7.59 17.38 7.38 C19.17 7.19 19.17 7.19 21 7 C21.66 7.66 22.32 8.32 23 9 C25.61 9.22 28.13 9.33 30.75 9.34 C31.51 9.36 32.28 9.37 33.07 9.39 C35.53 9.43 37.98 9.47 40.44 9.5 C43.67 9.54 46.89 9.59 50.12 9.66 C51.24 9.66 51.24 9.66 52.38 9.67 C56.11 9.74 57.81 9.87 61 12 C58.98 14.02 54.86 13.19 52.09 13.2 C51.29 13.21 50.49 13.21 49.66 13.22 C47.96 13.23 46.26 13.24 44.56 13.24 C41.97 13.25 39.39 13.28 36.81 13.31 C35.15 13.32 33.5 13.32 31.84 13.33 C31.07 13.34 30.31 13.35 29.52 13.37 C24.05 13.34 20.04 12.14 15 10 C13.52 9.53 12.05 9.07 10.56 8.62 C5.68 7.04 1.39 4.63 -3 2 C-2.01 1.34 -1.02 0.68 0 0 Z " fill="#000100" transform="translate(323,1267)"/>
<path d="M0 0 C2 1 2 1 2.78 2.79 C7.07 16.38 8.31 28.75 8 43 C7.98 43.8 7.97 44.61 7.95 45.43 C7.58 50.78 6.02 55.87 4.56 61 C4.35 61.77 4.13 62.54 3.9 63.33 C3.33 65.24 2.67 67.12 2 69 C1.01 69.5 1.01 69.5 0 70 C-0.5 67.03 -0.5 67.03 -1 64 C0.49 63.5 0.49 63.5 2 63 C1.98 62.4 1.95 61.79 1.93 61.17 C1.91 60.37 1.89 59.57 1.88 58.75 C1.85 57.96 1.83 57.17 1.8 56.36 C2 54 2 54 3 52.26 C4.6 48.65 4.16 45.02 4.06 41.12 C3.95 33.02 4.26 25.08 5 17 C4.01 17 3.02 17 2 17 C1.91 15.93 1.91 15.93 1.82 14.85 C1.73 13.93 1.65 13.01 1.56 12.06 C1.48 11.15 1.4 10.23 1.32 9.29 C1.24 7.04 1.24 7.04 0 6 C-0.04 4 -0.04 2 0 0 Z " fill="#000100" transform="translate(998,605)"/>
<path d="M0 0 C0.66 0 1.32 0 2 0 C3.01 1.66 4.01 3.33 5 5 C5.72 5.72 6.44 6.44 7.19 7.19 C7.79 7.79 8.38 8.38 9 9 C9 9.66 9 10.32 9 11 C9.66 11 10.32 11 11 11 C12.22 12.46 13.44 13.92 14.62 15.41 C16.12 17.24 16.12 17.24 18.81 19.25 C19.53 19.83 20.26 20.4 21 21 C21 21.66 21 22.32 21 23 C21.9 23.09 21.9 23.09 22.81 23.19 C25 24 25 24 26.44 26.5 C27.78 29.25 27.78 29.25 30.69 29.81 C31.83 29.91 31.83 29.91 33 30 C33 30.99 33 31.98 33 33 C29.46 32.39 27.45 31 24.69 28.75 C21.98 26.56 19.3 24.51 16.38 22.62 C11.99 19.54 9.13 15.29 6 11 C5.41 10.26 4.83 9.51 4.23 8.75 C3.68 8.05 3.13 7.35 2.56 6.62 C2.07 6 1.58 5.37 1.07 4.73 C0 3 0 3 0 0 Z " fill="#000100" transform="translate(287,1235)"/>
<path d="M0 0 C0.66 0.33 1.32 0.66 2 1 C2 12.22 2 23.44 2 35 C-2.27 30.73 -1.08 22.22 -1.12 16.5 C-1.09 10.92 -0.78 5.53 0 0 Z " fill="#000100" transform="translate(275,1174)"/>
<path d="M0 0 C0.33 0 0.66 0 1 0 C1 11.22 1 22.44 1 34 C0.01 34.5 0.01 34.5 -1 35 C-4.62 9.23 -4.62 9.23 0 0 Z " fill="#000100" transform="translate(276,71)"/>
<path d="M0 0 C0.66 0.33 1.32 0.66 2 1 C-6.58 9.58 -15.16 18.16 -24 27 C-24 22.93 -21.97 20.84 -19.56 17.75 C-19.11 17.17 -18.66 16.59 -18.2 15.99 C-14.35 11.15 -10.09 7.5 -5 4 C-3.33 2.67 -1.66 1.34 0 0 Z " fill="#000100" transform="translate(314,14)"/>
<path d="M0 0 C0.66 0 1.32 0 2 0 C2.33 2.64 2.66 5.28 3 8 C3.66 8 4.32 8 5 8 C5.27 9.05 5.54 10.1 5.81 11.19 C6.8 14.93 6.8 14.93 8.62 17.62 C10.19 20.33 10.26 21.93 10 25 C4.63 20.32 1.77 11.75 0 5 C-0.12 2.12 -0.12 2.12 0 0 Z " fill="#000100" transform="translate(277,1210)"/>
<path d="M0 0 C0 0.66 0 1.32 0 2 C-2.64 2.33 -5.28 2.66 -8 3 C-8 3.66 -8 4.32 -8 5 C-10.31 5 -12.62 5 -15 5 C-15 5.66 -15 6.32 -15 7 C-18.32 8.42 -21.44 9.39 -25 10 C-19.18 3.52 -8.64 -0.52 0 0 Z " fill="#000100" transform="translate(345,2)"/>
<path d="M0 0 C8.53 0.76 16.5 3.95 24 8 C23.67 8.66 23.34 9.32 23 10 C19.65 9.3 16.83 8.04 13.75 6.56 C9.19 4.44 4.92 3.02 0 2 C0 1.34 0 0.68 0 0 Z " fill="#000100" transform="translate(385,2)"/>
<path d="M0 0 C2.97 0.49 2.97 0.49 6 1 C5 3 5 3 3.11 3.85 C-4.71 6.42 -4.71 6.42 -9 6 C-8.67 5.01 -8.34 4.02 -8 3 C-5.69 3 -3.38 3 -1 3 C-0.67 2.01 -0.34 1.02 0 0 Z " fill="#000100" transform="translate(394,1272)"/>
<path d="M0 0 C1.08 3.23 0.94 3.89 0 7 C-0.26 8.06 -0.26 8.06 -0.54 9.14 C-1.02 11.09 -1.51 13.05 -2 15 C-2.66 15 -3.32 15 -4 15 C-3.43 9.55 -2.05 5.09 0 0 Z " fill="#000100" transform="translate(281,55)"/>
</svg>
