<?xml version="1.0" encoding="UTF-8"?>
<!-- Generator: visioncortex VTracer 0.6.3 -->
<svg version="1.1" xmlns="http://www.w3.org/2000/svg" width="1280" height="1280">
<path d="M0 0 C2.39 0.03 4.77 0.02 7.15 0.01 C14.89 0.02 21.88 0.27 29.06 3.47 C29.99 3.77 30.92 4.07 31.89 4.39 C40.61 7.37 50.03 11.36 57.06 17.47 C57.06 18.13 57.06 18.79 57.06 19.47 C57.68 19.78 58.29 20.09 58.93 20.4 C60.31 21.09 61.68 21.78 63.06 22.47 C63.06 23.13 63.06 23.79 63.06 24.47 C63.92 24.84 63.92 24.84 64.81 25.23 C67.34 26.62 69.04 28.2 71.09 30.25 C71.89 31.04 72.68 31.83 73.51 32.65 C74.38 33.53 75.25 34.41 76.15 35.31 C77.1 36.25 78.04 37.2 78.99 38.14 C81.6 40.74 84.2 43.34 86.8 45.95 C89.62 48.78 92.45 51.61 95.29 54.43 C100.25 59.39 105.21 64.35 110.17 69.31 C117.54 76.69 124.92 84.07 132.3 91.44 C145.48 104.61 158.65 117.78 171.82 130.95 C183.34 142.48 194.86 154.01 206.39 165.53 C207.15 166.29 207.92 167.06 208.7 167.84 C211.8 170.94 214.9 174.04 218 177.14 C247.09 206.23 276.18 235.32 305.26 264.41 C331.13 290.28 356.99 316.15 382.86 342.01 C411.91 371.05 440.95 400.08 469.98 429.12 C473.08 432.22 476.17 435.31 479.26 438.4 C480.4 439.54 480.4 439.54 481.57 440.71 C493.09 452.23 504.61 463.75 516.14 475.27 C529.23 488.36 542.33 501.46 555.41 514.56 C562.75 521.9 570.08 529.23 577.42 536.57 C582.32 541.45 587.21 546.35 592.09 551.24 C594.88 554.04 597.68 556.83 600.47 559.62 C603.48 562.62 606.47 565.62 609.46 568.62 C610.35 569.5 611.23 570.38 612.14 571.28 C612.93 572.08 613.72 572.87 614.53 573.69 C615.22 574.37 615.9 575.06 616.61 575.77 C618.06 577.47 618.06 577.47 618.06 579.47 C618.72 579.47 619.38 579.47 620.06 579.47 C623.06 582.93 623.06 582.93 623.06 585.47 C623.72 585.47 624.38 585.47 625.06 585.47 C627.35 588.03 628.06 588.95 628.06 592.47 C628.72 592.47 629.38 592.47 630.06 592.47 C639.42 611.24 643.51 627.47 643.06 648.47 C643.04 649.27 643.02 650.07 643.01 650.9 C642.1 664.19 636.38 676.96 630.06 688.47 C629.4 688.47 628.74 688.47 628.06 688.47 C627.93 689.06 627.81 689.66 627.68 690.28 C627.06 692.47 627.06 692.47 625.06 695.47 C624.4 695.47 623.74 695.47 623.06 695.47 C622.75 696.09 622.44 696.7 622.12 697.34 C621.43 698.72 620.74 700.09 620.06 701.47 C619.4 701.47 618.74 701.47 618.06 701.47 C617.81 702.04 617.55 702.62 617.29 703.21 C615.9 705.75 614.33 707.45 612.28 709.5 C611.48 710.3 610.69 711.09 609.87 711.92 C608.56 713.23 608.56 713.23 607.21 714.56 C606.27 715.51 605.33 716.45 604.39 717.4 C601.79 720 599.18 722.61 596.57 725.21 C593.74 728.03 590.92 730.86 588.09 733.69 C583.14 738.66 578.18 743.62 573.21 748.58 C565.83 755.95 558.46 763.33 551.08 770.71 C537.92 783.88 524.75 797.06 511.57 810.22 C500.04 821.75 488.52 833.27 476.99 844.8 C475.85 845.94 475.85 845.94 474.68 847.11 C471.58 850.21 468.48 853.31 465.38 856.41 C436.3 885.5 407.21 914.59 378.11 943.67 C352.24 969.54 326.37 995.4 300.51 1021.27 C271.48 1050.32 242.44 1079.36 213.4 1108.39 C210.31 1111.48 207.21 1114.58 204.12 1117.67 C202.98 1118.81 202.98 1118.81 201.81 1119.98 C190.29 1131.5 178.77 1143.02 167.25 1154.55 C154.16 1167.64 141.07 1180.74 127.97 1193.82 C120.63 1201.16 113.29 1208.49 105.96 1215.83 C101.07 1220.73 96.18 1225.62 91.28 1230.5 C88.49 1233.29 85.69 1236.09 82.9 1238.88 C79.91 1241.88 76.91 1244.88 73.9 1247.87 C73.02 1248.76 72.15 1249.64 71.24 1250.55 C70.45 1251.34 69.65 1252.13 68.84 1252.94 C68.15 1253.62 67.46 1254.31 66.76 1255.02 C65.06 1256.47 65.06 1256.47 63.06 1256.47 C63.06 1257.13 63.06 1257.79 63.06 1258.47 C59.6 1261.47 59.6 1261.47 57.06 1261.47 C57.06 1262.13 57.06 1262.79 57.06 1263.47 C52.19 1267.35 47.14 1270.08 41.49 1272.65 C40.4 1273.17 40.4 1273.17 39.29 1273.69 C33.58 1276.34 28.45 1278.65 22.06 1278.47 C21.73 1278.8 21.4 1279.13 21.06 1279.47 C19.04 1281.49 14.92 1280.65 12.15 1280.67 C11.35 1280.68 10.55 1280.68 9.72 1280.69 C8.02 1280.7 6.32 1280.7 4.61 1280.71 C2.03 1280.72 -0.55 1280.75 -3.14 1280.78 C-4.79 1280.79 -6.45 1280.79 -8.1 1280.79 C-9.25 1280.81 -9.25 1280.81 -10.42 1280.83 C-15.89 1280.81 -19.9 1279.61 -24.94 1277.47 C-26.36 1277.02 -27.77 1276.58 -29.19 1276.15 C-38.42 1273.07 -46.29 1268.61 -53.7 1262.33 C-55.62 1260.73 -57.53 1259.38 -59.63 1258.03 C-64 1254.97 -66.82 1250.73 -69.94 1246.47 C-70.44 1245.89 -70.93 1245.3 -71.43 1244.7 C-85.69 1227.56 -89.44 1205.01 -88.94 1183.47 C-88.93 1182.69 -88.91 1181.9 -88.89 1181.1 C-87.71 1163.79 -78.97 1145.57 -67.94 1132.47 C-67.28 1132.47 -66.62 1132.47 -65.94 1132.47 C-65.67 1131.7 -65.41 1130.94 -65.13 1130.15 C-63.99 1127.58 -63.13 1126.2 -60.94 1124.47 C-60.28 1124.47 -59.62 1124.47 -58.94 1124.47 C-58.67 1123.83 -58.41 1123.19 -58.13 1122.53 C-56.94 1120.47 -56.94 1120.47 -53.94 1119.47 C-53.61 1118.81 -53.28 1118.15 -52.94 1117.47 C-51.94 1115.47 -51.94 1115.47 -48.94 1114.47 C-48.61 1113.81 -48.28 1113.15 -47.94 1112.47 C-46.94 1110.47 -46.94 1110.47 -43.94 1109.47 C-43.61 1108.81 -43.28 1108.15 -42.94 1107.47 C-41.94 1105.47 -41.94 1105.47 -38.94 1104.47 C-38.61 1103.81 -38.28 1103.15 -37.94 1102.47 C-36.94 1100.47 -36.94 1100.47 -33.94 1099.47 C-33.61 1098.81 -33.28 1098.15 -32.94 1097.47 C-31.94 1095.47 -31.94 1095.47 -28.94 1094.47 C-28.61 1093.81 -28.28 1093.15 -27.94 1092.47 C-26.94 1090.47 -26.94 1090.47 -23.94 1089.47 C-23.61 1088.81 -23.28 1088.15 -22.94 1087.47 C-21.94 1085.47 -21.94 1085.47 -18.94 1084.47 C-18.61 1083.81 -18.28 1083.15 -17.94 1082.47 C-16.94 1080.47 -16.94 1080.47 -13.94 1079.47 C-13.61 1078.81 -13.28 1078.15 -12.94 1077.47 C-11.94 1075.47 -11.94 1075.47 -8.94 1074.47 C-8.61 1073.81 -8.28 1073.15 -7.94 1072.47 C-6.94 1070.47 -6.94 1070.47 -3.94 1069.47 C-3.61 1068.81 -3.28 1068.15 -2.94 1067.47 C-1.94 1065.47 -1.94 1065.47 1.06 1064.47 C1.39 1063.81 1.72 1063.15 2.06 1062.47 C3.06 1060.47 3.06 1060.47 6.06 1059.47 C6.39 1058.81 6.72 1058.15 7.06 1057.47 C8.06 1055.47 8.06 1055.47 11.06 1054.47 C11.39 1053.81 11.72 1053.15 12.06 1052.47 C13.06 1050.47 13.06 1050.47 16.06 1049.47 C16.39 1048.81 16.72 1048.15 17.06 1047.47 C18.06 1045.47 18.06 1045.47 21.06 1044.47 C21.39 1043.81 21.72 1043.15 22.06 1042.47 C23.06 1040.47 23.06 1040.47 26.06 1039.47 C26.39 1038.81 26.72 1038.15 27.06 1037.47 C28.06 1035.47 28.06 1035.47 31.06 1034.47 C31.39 1033.81 31.72 1033.15 32.06 1032.47 C33.06 1030.47 33.06 1030.47 36.06 1029.47 C36.39 1028.81 36.72 1028.15 37.06 1027.47 C38.06 1025.47 38.06 1025.47 41.06 1024.47 C41.39 1023.81 41.72 1023.15 42.06 1022.47 C43.06 1020.47 43.06 1020.47 46.06 1019.47 C46.39 1018.81 46.72 1018.15 47.06 1017.47 C48.06 1015.47 48.06 1015.47 51.06 1014.47 C51.39 1013.81 51.72 1013.15 52.06 1012.47 C53.06 1010.47 53.06 1010.47 56.06 1009.47 C56.39 1008.81 56.72 1008.15 57.06 1007.47 C58.06 1005.47 58.06 1005.47 61.06 1004.47 C61.39 1003.81 61.72 1003.15 62.06 1002.47 C63.06 1000.47 63.06 1000.47 66.06 999.47 C66.39 998.81 66.72 998.15 67.06 997.47 C68.06 995.47 68.06 995.47 71.06 994.47 C71.39 993.81 71.72 993.15 72.06 992.47 C73.06 990.47 73.06 990.47 76.06 989.47 C76.39 988.81 76.72 988.15 77.06 987.47 C78.06 985.47 78.06 985.47 81.06 984.47 C81.39 983.81 81.72 983.15 82.06 982.47 C83.06 980.47 83.06 980.47 86.06 979.47 C86.39 978.81 86.72 978.15 87.06 977.47 C88.06 975.47 88.06 975.47 91.06 974.47 C91.39 973.81 91.72 973.15 92.06 972.47 C93.06 970.47 93.06 970.47 96.06 969.47 C96.39 968.81 96.72 968.15 97.06 967.47 C98.06 965.47 98.06 965.47 101.06 964.47 C101.39 963.81 101.72 963.15 102.06 962.47 C103.06 960.47 103.06 960.47 106.06 959.47 C106.39 958.81 106.72 958.15 107.06 957.47 C108.06 955.47 108.06 955.47 111.06 954.47 C111.39 953.81 111.72 953.15 112.06 952.47 C113.06 950.47 113.06 950.47 116.06 949.47 C116.39 948.81 116.72 948.15 117.06 947.47 C118.06 945.47 118.06 945.47 121.06 944.47 C121.39 943.81 121.72 943.15 122.06 942.47 C123.06 940.47 123.06 940.47 126.06 939.47 C126.39 938.81 126.72 938.15 127.06 937.47 C128.06 935.47 128.06 935.47 131.06 934.47 C131.39 933.81 131.72 933.15 132.06 932.47 C133.06 930.47 133.06 930.47 136.06 929.47 C136.39 928.81 136.72 928.15 137.06 927.47 C138.06 925.47 138.06 925.47 141.06 924.47 C141.39 923.81 141.72 923.15 142.06 922.47 C143.06 920.47 143.06 920.47 146.06 919.47 C146.39 918.81 146.72 918.15 147.06 917.47 C148.06 915.47 148.06 915.47 151.06 914.47 C151.39 913.81 151.72 913.15 152.06 912.47 C153.06 910.47 153.06 910.47 156.06 909.47 C156.39 908.81 156.72 908.15 157.06 907.47 C158.06 905.47 158.06 905.47 161.06 904.47 C161.39 903.81 161.72 903.15 162.06 902.47 C163.06 900.47 163.06 900.47 166.06 899.47 C166.39 898.81 166.72 898.15 167.06 897.47 C168.06 895.47 168.06 895.47 171.06 894.47 C171.39 893.81 171.72 893.15 172.06 892.47 C173.06 890.47 173.06 890.47 176.06 889.47 C176.39 888.81 176.72 888.15 177.06 887.47 C178.06 885.47 178.06 885.47 181.06 884.47 C181.39 883.81 181.72 883.15 182.06 882.47 C183.06 880.47 183.06 880.47 186.06 879.47 C186.39 878.81 186.72 878.15 187.06 877.47 C188.06 875.47 188.06 875.47 191.06 874.47 C191.39 873.81 191.72 873.15 192.06 872.47 C193.06 870.47 193.06 870.47 196.06 869.47 C196.39 868.81 196.72 868.15 197.06 867.47 C198.06 865.47 198.06 865.47 201.06 864.47 C201.39 863.81 201.72 863.15 202.06 862.47 C203.06 860.47 203.06 860.47 206.06 859.47 C206.39 858.81 206.72 858.15 207.06 857.47 C208.06 855.47 208.06 855.47 211.06 854.47 C211.39 853.81 211.72 853.15 212.06 852.47 C213.06 850.47 213.06 850.47 216.06 849.47 C216.39 848.81 216.72 848.15 217.06 847.47 C218.06 845.47 218.06 845.47 221.06 844.47 C221.39 843.81 221.72 843.15 222.06 842.47 C223.06 840.47 223.06 840.47 226.06 839.47 C226.39 838.81 226.72 838.15 227.06 837.47 C228.06 835.47 228.06 835.47 231.06 834.47 C231.39 833.81 231.72 833.15 232.06 832.47 C233.06 830.47 233.06 830.47 236.06 829.47 C236.39 828.81 236.72 828.15 237.06 827.47 C238.06 825.47 238.06 825.47 241.06 824.47 C241.39 823.81 241.72 823.15 242.06 822.47 C243.06 820.47 243.06 820.47 246.06 819.47 C246.39 818.81 246.72 818.15 247.06 817.47 C248.06 815.47 248.06 815.47 251.06 814.47 C251.39 813.81 251.72 813.15 252.06 812.47 C253.06 810.47 253.06 810.47 256.06 809.47 C256.39 808.81 256.72 808.15 257.06 807.47 C258.06 805.47 258.06 805.47 261.06 804.47 C261.39 803.81 261.72 803.15 262.06 802.47 C263.06 800.47 263.06 800.47 266.06 799.47 C266.39 798.81 266.72 798.15 267.06 797.47 C268.06 795.47 268.06 795.47 271.06 794.47 C271.39 793.81 271.72 793.15 272.06 792.47 C273.06 790.47 273.06 790.47 276.06 789.47 C276.39 788.81 276.72 788.15 277.06 787.47 C278.06 785.47 278.06 785.47 281.06 784.47 C281.39 783.81 281.72 783.15 282.06 782.47 C283.06 780.47 283.06 780.47 286.06 779.47 C286.39 778.81 286.72 778.15 287.06 777.47 C288.06 775.47 288.06 775.47 291.06 774.47 C291.39 773.81 291.72 773.15 292.06 772.47 C293.06 770.47 293.06 770.47 296.06 769.47 C296.39 768.81 296.72 768.15 297.06 767.47 C298.06 765.47 298.06 765.47 301.06 764.47 C301.39 763.81 301.72 763.15 302.06 762.47 C303.06 760.47 303.06 760.47 306.06 759.47 C306.39 758.81 306.72 758.15 307.06 757.47 C308.06 755.47 308.06 755.47 311.06 754.47 C311.39 753.81 311.72 753.15 312.06 752.47 C313.06 750.47 313.06 750.47 316.06 749.47 C316.39 748.81 316.72 748.15 317.06 747.47 C318.06 745.47 318.06 745.47 321.06 744.47 C321.39 743.81 321.72 743.15 322.06 742.47 C323.06 740.47 323.06 740.47 326.06 739.47 C326.39 738.48 326.72 737.49 327.06 736.47 C327.72 736.47 328.38 736.47 329.06 736.47 C329.06 735.81 329.06 735.15 329.06 734.47 C329.72 734.47 330.38 734.47 331.06 734.47 C331.39 733.48 331.72 732.49 332.06 731.47 C332.72 731.47 333.38 731.47 334.06 731.47 C334.06 730.81 334.06 730.15 334.06 729.47 C334.72 729.47 335.38 729.47 336.06 729.47 C336.39 728.48 336.72 727.49 337.06 726.47 C337.72 726.47 338.38 726.47 339.06 726.47 C339.06 725.81 339.06 725.15 339.06 724.47 C339.72 724.47 340.38 724.47 341.06 724.47 C341.39 723.48 341.72 722.49 342.06 721.47 C342.72 721.47 343.38 721.47 344.06 721.47 C344.06 720.81 344.06 720.15 344.06 719.47 C344.72 719.47 345.38 719.47 346.06 719.47 C346.39 718.48 346.72 717.49 347.06 716.47 C347.72 716.47 348.38 716.47 349.06 716.47 C349.06 715.81 349.06 715.15 349.06 714.47 C349.72 714.47 350.38 714.47 351.06 714.47 C351.39 713.48 351.72 712.49 352.06 711.47 C352.72 711.47 353.38 711.47 354.06 711.47 C354.06 710.81 354.06 710.15 354.06 709.47 C354.72 709.47 355.38 709.47 356.06 709.47 C356.39 708.48 356.72 707.49 357.06 706.47 C357.72 706.47 358.38 706.47 359.06 706.47 C359.06 705.81 359.06 705.15 359.06 704.47 C359.72 704.47 360.38 704.47 361.06 704.47 C361.39 703.48 361.72 702.49 362.06 701.47 C362.72 701.47 363.38 701.47 364.06 701.47 C364.06 700.81 364.06 700.15 364.06 699.47 C364.72 699.47 365.38 699.47 366.06 699.47 C366.39 698.48 366.72 697.49 367.06 696.47 C367.72 696.47 368.38 696.47 369.06 696.47 C369.06 695.81 369.06 695.15 369.06 694.47 C369.72 694.47 370.38 694.47 371.06 694.47 C371.39 693.48 371.72 692.49 372.06 691.47 C372.72 691.47 373.38 691.47 374.06 691.47 C374.06 690.81 374.06 690.15 374.06 689.47 C374.72 689.47 375.38 689.47 376.06 689.47 C376.39 688.48 376.72 687.49 377.06 686.47 C377.72 686.47 378.38 686.47 379.06 686.47 C379.06 685.81 379.06 685.15 379.06 684.47 C379.72 684.47 380.38 684.47 381.06 684.47 C381.39 683.48 381.72 682.49 382.06 681.47 C382.72 681.47 383.38 681.47 384.06 681.47 C384.06 680.81 384.06 680.15 384.06 679.47 C384.72 679.47 385.38 679.47 386.06 679.47 C386.39 678.48 386.72 677.49 387.06 676.47 C387.72 676.47 388.38 676.47 389.06 676.47 C389.06 675.81 389.06 675.15 389.06 674.47 C389.72 674.47 390.38 674.47 391.06 674.47 C391.39 673.48 391.72 672.49 392.06 671.47 C392.72 671.47 393.38 671.47 394.06 671.47 C394.06 670.81 394.06 670.15 394.06 669.47 C394.72 669.47 395.38 669.47 396.06 669.47 C396.39 668.48 396.72 667.49 397.06 666.47 C397.72 666.47 398.38 666.47 399.06 666.47 C399.06 665.81 399.06 665.15 399.06 664.47 C399.72 664.47 400.38 664.47 401.06 664.47 C401.39 663.48 401.72 662.49 402.06 661.47 C402.72 661.47 403.38 661.47 404.06 661.47 C404.06 660.81 404.06 660.15 404.06 659.47 C404.72 659.47 405.38 659.47 406.06 659.47 C406.39 658.48 406.72 657.49 407.06 656.47 C407.72 656.47 408.38 656.47 409.06 656.47 C409.06 655.81 409.06 655.15 409.06 654.47 C409.72 654.47 410.38 654.47 411.06 654.47 C411.39 653.48 411.72 652.49 412.06 651.47 C412.72 651.47 413.38 651.47 414.06 651.47 C414.06 650.81 414.06 650.15 414.06 649.47 C414.72 649.47 415.38 649.47 416.06 649.47 C416.39 648.48 416.72 647.49 417.06 646.47 C417.72 646.47 418.38 646.47 419.06 646.47 C419.06 645.81 419.06 645.15 419.06 644.47 C419.72 644.47 420.38 644.47 421.06 644.47 C421.86 641.18 422.15 639.76 421.06 636.47 C420.4 636.47 419.74 636.47 419.06 636.47 C419.06 635.81 419.06 635.15 419.06 634.47 C418.07 634.14 417.08 633.81 416.06 633.47 C416.06 632.81 416.06 632.15 416.06 631.47 C415.4 631.47 414.74 631.47 414.06 631.47 C414.06 630.81 414.06 630.15 414.06 629.47 C413.07 629.14 412.08 628.81 411.06 628.47 C411.06 627.81 411.06 627.15 411.06 626.47 C410.4 626.47 409.74 626.47 409.06 626.47 C409.06 625.81 409.06 625.15 409.06 624.47 C408.07 624.14 407.08 623.81 406.06 623.47 C406.06 622.81 406.06 622.15 406.06 621.47 C405.4 621.47 404.74 621.47 404.06 621.47 C404.06 620.81 404.06 620.15 404.06 619.47 C403.07 619.14 402.08 618.81 401.06 618.47 C401.06 617.81 401.06 617.15 401.06 616.47 C400.4 616.47 399.74 616.47 399.06 616.47 C399.06 615.81 399.06 615.15 399.06 614.47 C398.07 614.14 397.08 613.81 396.06 613.47 C396.06 612.81 396.06 612.15 396.06 611.47 C395.4 611.47 394.74 611.47 394.06 611.47 C394.06 610.81 394.06 610.15 394.06 609.47 C393.07 609.14 392.08 608.81 391.06 608.47 C391.06 607.81 391.06 607.15 391.06 606.47 C390.4 606.47 389.74 606.47 389.06 606.47 C389.06 605.81 389.06 605.15 389.06 604.47 C388.07 604.14 387.08 603.81 386.06 603.47 C386.06 602.81 386.06 602.15 386.06 601.47 C385.4 601.47 384.74 601.47 384.06 601.47 C384.06 600.81 384.06 600.15 384.06 599.47 C383.07 599.14 382.08 598.81 381.06 598.47 C381.06 597.81 381.06 597.15 381.06 596.47 C380.4 596.47 379.74 596.47 379.06 596.47 C379.06 595.81 379.06 595.15 379.06 594.47 C378.07 594.14 377.08 593.81 376.06 593.47 C376.06 592.81 376.06 592.15 376.06 591.47 C375.4 591.47 374.74 591.47 374.06 591.47 C374.06 590.81 374.06 590.15 374.06 589.47 C373.07 589.14 372.08 588.81 371.06 588.47 C371.06 587.81 371.06 587.15 371.06 586.47 C370.4 586.47 369.74 586.47 369.06 586.47 C369.06 585.81 369.06 585.15 369.06 584.47 C368.07 584.14 367.08 583.81 366.06 583.47 C366.06 582.81 366.06 582.15 366.06 581.47 C365.4 581.47 364.74 581.47 364.06 581.47 C364.06 580.81 364.06 580.15 364.06 579.47 C363.07 579.14 362.08 578.81 361.06 578.47 C361.06 577.81 361.06 577.15 361.06 576.47 C360.4 576.47 359.74 576.47 359.06 576.47 C359.06 575.81 359.06 575.15 359.06 574.47 C358.07 574.14 357.08 573.81 356.06 573.47 C356.06 572.81 356.06 572.15 356.06 571.47 C355.4 571.47 354.74 571.47 354.06 571.47 C354.06 570.81 354.06 570.15 354.06 569.47 C353.07 569.14 352.08 568.81 351.06 568.47 C351.06 567.81 351.06 567.15 351.06 566.47 C350.4 566.47 349.74 566.47 349.06 566.47 C349.06 565.81 349.06 565.15 349.06 564.47 C348.07 564.14 347.08 563.81 346.06 563.47 C346.06 562.81 346.06 562.15 346.06 561.47 C345.4 561.47 344.74 561.47 344.06 561.47 C344.06 560.81 344.06 560.15 344.06 559.47 C343.07 559.14 342.08 558.81 341.06 558.47 C341.06 557.81 341.06 557.15 341.06 556.47 C340.4 556.47 339.74 556.47 339.06 556.47 C339.06 555.81 339.06 555.15 339.06 554.47 C338.07 554.14 337.08 553.81 336.06 553.47 C336.06 552.81 336.06 552.15 336.06 551.47 C335.4 551.47 334.74 551.47 334.06 551.47 C334.06 550.81 334.06 550.15 334.06 549.47 C333.07 549.14 332.08 548.81 331.06 548.47 C331.06 547.81 331.06 547.15 331.06 546.47 C330.4 546.47 329.74 546.47 329.06 546.47 C329.06 545.81 329.06 545.15 329.06 544.47 C328.07 544.14 327.08 543.81 326.06 543.47 C326.06 542.81 326.06 542.15 326.06 541.47 C325.42 541.2 324.78 540.93 324.12 540.65 C322.06 539.47 322.06 539.47 321.06 536.47 C320.4 536.14 319.74 535.81 319.06 535.47 C317.06 534.47 317.06 534.47 316.06 531.47 C315.4 531.14 314.74 530.81 314.06 530.47 C312.06 529.47 312.06 529.47 311.06 526.47 C310.4 526.14 309.74 525.81 309.06 525.47 C307.06 524.47 307.06 524.47 306.06 521.47 C305.4 521.14 304.74 520.81 304.06 520.47 C302.06 519.47 302.06 519.47 301.06 516.47 C300.4 516.14 299.74 515.81 299.06 515.47 C297.06 514.47 297.06 514.47 296.06 511.47 C295.4 511.14 294.74 510.81 294.06 510.47 C292.06 509.47 292.06 509.47 291.06 506.47 C290.4 506.14 289.74 505.81 289.06 505.47 C287.06 504.47 287.06 504.47 286.06 501.47 C285.4 501.14 284.74 500.81 284.06 500.47 C282.06 499.47 282.06 499.47 281.06 496.47 C280.4 496.14 279.74 495.81 279.06 495.47 C277.06 494.47 277.06 494.47 276.06 491.47 C275.4 491.14 274.74 490.81 274.06 490.47 C272.06 489.47 272.06 489.47 271.06 486.47 C270.4 486.14 269.74 485.81 269.06 485.47 C267.06 484.47 267.06 484.47 266.06 481.47 C265.4 481.14 264.74 480.81 264.06 480.47 C262.06 479.47 262.06 479.47 261.06 476.47 C260.4 476.14 259.74 475.81 259.06 475.47 C257.06 474.47 257.06 474.47 256.06 471.47 C255.4 471.14 254.74 470.81 254.06 470.47 C252.06 469.47 252.06 469.47 251.06 466.47 C250.4 466.14 249.74 465.81 249.06 465.47 C247.06 464.47 247.06 464.47 246.06 461.47 C245.4 461.14 244.74 460.81 244.06 460.47 C242.06 459.47 242.06 459.47 241.06 456.47 C240.4 456.14 239.74 455.81 239.06 455.47 C237.06 454.47 237.06 454.47 236.06 451.47 C235.4 451.14 234.74 450.81 234.06 450.47 C232.06 449.47 232.06 449.47 231.06 446.47 C230.4 446.14 229.74 445.81 229.06 445.47 C227.06 444.47 227.06 444.47 226.06 441.47 C225.4 441.14 224.74 440.81 224.06 440.47 C222.06 439.47 222.06 439.47 221.06 436.47 C220.4 436.14 219.74 435.81 219.06 435.47 C217.06 434.47 217.06 434.47 216.06 431.47 C215.4 431.14 214.74 430.81 214.06 430.47 C212.06 429.47 212.06 429.47 211.06 426.47 C210.4 426.14 209.74 425.81 209.06 425.47 C207.06 424.47 207.06 424.47 206.06 421.47 C205.4 421.14 204.74 420.81 204.06 420.47 C202.06 419.47 202.06 419.47 201.06 416.47 C200.4 416.14 199.74 415.81 199.06 415.47 C197.06 414.47 197.06 414.47 196.06 411.47 C195.4 411.14 194.74 410.81 194.06 410.47 C192.06 409.47 192.06 409.47 191.06 406.47 C190.4 406.14 189.74 405.81 189.06 405.47 C187.06 404.47 187.06 404.47 186.06 401.47 C185.4 401.14 184.74 400.81 184.06 400.47 C182.06 399.47 182.06 399.47 181.06 396.47 C180.4 396.14 179.74 395.81 179.06 395.47 C177.06 394.47 177.06 394.47 176.06 391.47 C175.4 391.14 174.74 390.81 174.06 390.47 C172.06 389.47 172.06 389.47 171.06 386.47 C170.4 386.14 169.74 385.81 169.06 385.47 C167.06 384.47 167.06 384.47 166.06 381.47 C165.4 381.14 164.74 380.81 164.06 380.47 C162.06 379.47 162.06 379.47 161.06 376.47 C160.4 376.14 159.74 375.81 159.06 375.47 C157.06 374.47 157.06 374.47 156.06 371.47 C155.4 371.14 154.74 370.81 154.06 370.47 C152.06 369.47 152.06 369.47 151.06 366.47 C150.4 366.14 149.74 365.81 149.06 365.47 C147.06 364.47 147.06 364.47 146.06 361.47 C145.4 361.14 144.74 360.81 144.06 360.47 C142.06 359.47 142.06 359.47 141.06 356.47 C140.4 356.14 139.74 355.81 139.06 355.47 C137.06 354.47 137.06 354.47 136.06 351.47 C135.4 351.14 134.74 350.81 134.06 350.47 C132.06 349.47 132.06 349.47 131.06 346.47 C130.4 346.14 129.74 345.81 129.06 345.47 C127.06 344.47 127.06 344.47 126.06 341.47 C125.4 341.14 124.74 340.81 124.06 340.47 C122.06 339.47 122.06 339.47 121.06 336.47 C120.4 336.14 119.74 335.81 119.06 335.47 C117.06 334.47 117.06 334.47 116.06 331.47 C115.4 331.14 114.74 330.81 114.06 330.47 C112.06 329.47 112.06 329.47 111.06 326.47 C110.4 326.14 109.74 325.81 109.06 325.47 C107.06 324.47 107.06 324.47 106.06 321.47 C105.4 321.14 104.74 320.81 104.06 320.47 C102.06 319.47 102.06 319.47 101.06 316.47 C100.4 316.14 99.74 315.81 99.06 315.47 C97.06 314.47 97.06 314.47 96.06 311.47 C95.4 311.14 94.74 310.81 94.06 310.47 C92.06 309.47 92.06 309.47 91.06 306.47 C90.4 306.14 89.74 305.81 89.06 305.47 C87.06 304.47 87.06 304.47 86.06 301.47 C85.4 301.14 84.74 300.81 84.06 300.47 C82.06 299.47 82.06 299.47 81.06 296.47 C80.4 296.14 79.74 295.81 79.06 295.47 C77.06 294.47 77.06 294.47 76.06 291.47 C75.4 291.14 74.74 290.81 74.06 290.47 C72.06 289.47 72.06 289.47 71.06 286.47 C70.4 286.14 69.74 285.81 69.06 285.47 C67.06 284.47 67.06 284.47 66.06 281.47 C65.4 281.14 64.74 280.81 64.06 280.47 C62.06 279.47 62.06 279.47 61.06 276.47 C60.4 276.14 59.74 275.81 59.06 275.47 C57.06 274.47 57.06 274.47 56.06 271.47 C55.4 271.14 54.74 270.81 54.06 270.47 C52.06 269.47 52.06 269.47 51.06 266.47 C50.4 266.14 49.74 265.81 49.06 265.47 C47.06 264.47 47.06 264.47 46.06 261.47 C45.4 261.14 44.74 260.81 44.06 260.47 C42.06 259.47 42.06 259.47 41.06 256.47 C40.4 256.14 39.74 255.81 39.06 255.47 C37.06 254.47 37.06 254.47 36.06 251.47 C35.4 251.14 34.74 250.81 34.06 250.47 C32.06 249.47 32.06 249.47 31.06 246.47 C30.4 246.14 29.74 245.81 29.06 245.47 C27.06 244.47 27.06 244.47 26.06 241.47 C25.4 241.14 24.74 240.81 24.06 240.47 C22.06 239.47 22.06 239.47 21.06 236.47 C20.4 236.14 19.74 235.81 19.06 235.47 C17.06 234.47 17.06 234.47 16.06 231.47 C15.4 231.14 14.74 230.81 14.06 230.47 C12.06 229.47 12.06 229.47 11.06 226.47 C10.4 226.14 9.74 225.81 9.06 225.47 C7.06 224.47 7.06 224.47 6.06 221.47 C5.4 221.14 4.74 220.81 4.06 220.47 C2.06 219.47 2.06 219.47 1.06 216.47 C0.4 216.14 -0.26 215.81 -0.94 215.47 C-2.94 214.47 -2.94 214.47 -3.94 211.47 C-4.6 211.14 -5.26 210.81 -5.94 210.47 C-7.94 209.47 -7.94 209.47 -8.94 206.47 C-9.6 206.14 -10.26 205.81 -10.94 205.47 C-12.94 204.47 -12.94 204.47 -13.94 201.47 C-14.6 201.14 -15.26 200.81 -15.94 200.47 C-17.94 199.47 -17.94 199.47 -18.94 196.47 C-19.6 196.14 -20.26 195.81 -20.94 195.47 C-22.94 194.47 -22.94 194.47 -23.94 191.47 C-24.6 191.14 -25.26 190.81 -25.94 190.47 C-27.94 189.47 -27.94 189.47 -28.94 186.47 C-29.6 186.14 -30.26 185.81 -30.94 185.47 C-32.94 184.47 -32.94 184.47 -33.94 181.47 C-34.6 181.14 -35.26 180.81 -35.94 180.47 C-37.94 179.47 -37.94 179.47 -38.94 176.47 C-39.6 176.14 -40.26 175.81 -40.94 175.47 C-42.94 174.47 -42.94 174.47 -43.94 171.47 C-44.6 171.14 -45.26 170.81 -45.94 170.47 C-47.94 169.47 -47.94 169.47 -48.94 166.47 C-49.6 166.14 -50.26 165.81 -50.94 165.47 C-52.94 164.47 -52.94 164.47 -53.94 161.47 C-54.6 161.14 -55.26 160.81 -55.94 160.47 C-57.94 159.47 -57.94 159.47 -58.94 156.47 C-59.56 156.16 -60.18 155.85 -60.82 155.53 C-63.38 154.25 -64.44 152.87 -65.94 150.47 C-65.94 149.81 -65.94 149.15 -65.94 148.47 C-66.6 148.47 -67.26 148.47 -67.94 148.47 C-84.58 130.03 -89.5 106.55 -88.94 82.47 C-88.93 81.69 -88.91 80.9 -88.89 80.1 C-87.37 57.69 -74.69 37.64 -58.94 22.47 C-52.42 16.82 -45.69 12.01 -38.01 8.09 C-37.41 7.78 -36.82 7.47 -36.2 7.15 C-24.35 1.39 -12.97 -0.17 0 0 Z M624.06 588.47 C625.06 590.47 625.06 590.47 625.06 590.47 Z M628.06 595.47 C629.05 596.95 629.05 596.95 630.06 598.47 C630.06 597.48 630.06 596.49 630.06 595.47 C629.4 595.47 628.74 595.47 628.06 595.47 Z M633.06 605.47 C633.72 606.79 634.38 608.11 635.06 609.47 C635.06 608.15 635.06 606.83 635.06 605.47 C634.4 605.47 633.74 605.47 633.06 605.47 Z M636.06 613.47 C636.06 615.45 636.06 617.43 636.06 619.47 C636.39 619.47 636.72 619.47 637.06 619.47 C637.06 617.49 637.06 615.51 637.06 613.47 C636.73 613.47 636.4 613.47 636.06 613.47 Z M638.06 622.47 C638.72 623.79 639.38 625.11 640.06 626.47 C640.06 625.15 640.06 623.83 640.06 622.47 C639.4 622.47 638.74 622.47 638.06 622.47 Z M638.06 626.47 C639.06 630.47 639.06 630.47 639.06 630.47 Z M638.06 646.47 C638.06 649.11 638.06 651.75 638.06 654.47 C638.39 654.47 638.72 654.47 639.06 654.47 C639.06 651.83 639.06 649.19 639.06 646.47 C638.73 646.47 638.4 646.47 638.06 646.47 Z M637.06 657.47 C637.39 658.13 637.72 658.79 638.06 659.47 C638.39 658.81 638.72 658.15 639.06 657.47 C638.4 657.47 637.74 657.47 637.06 657.47 Z M636.06 659.47 C636.06 662.11 636.06 664.75 636.06 667.47 C636.39 667.47 636.72 667.47 637.06 667.47 C637.06 664.83 637.06 662.19 637.06 659.47 C636.73 659.47 636.4 659.47 636.06 659.47 Z M634.06 667.47 C634.39 668.13 634.72 668.79 635.06 669.47 C635.39 668.81 635.72 668.15 636.06 667.47 C635.4 667.47 634.74 667.47 634.06 667.47 Z M633.06 669.47 C634.06 671.47 634.06 671.47 634.06 671.47 Z M634.06 671.47 C633.73 672.79 633.4 674.11 633.06 675.47 C633.72 675.47 634.38 675.47 635.06 675.47 C634.73 674.15 634.4 672.83 634.06 671.47 Z M631.06 676.47 C630.73 677.79 630.4 679.11 630.06 680.47 C630.72 680.47 631.38 680.47 632.06 680.47 C631.73 679.15 631.4 677.83 631.06 676.47 Z M628.06 681.47 C629.06 685.47 629.06 685.47 629.06 685.47 Z M623.06 690.47 C624.06 693.47 624.06 693.47 624.06 693.47 Z M621.06 693.47 C434.28 880.25 247.5 1067.03 55.06 1259.47 C55.39 1260.13 55.72 1260.79 56.06 1261.47 C243.17 1074.36 430.28 887.25 623.06 694.47 C622.4 694.14 621.74 693.81 621.06 693.47 Z M51.06 1261.47 C55.06 1262.47 55.06 1262.47 55.06 1262.47 Z M43.06 1266.47 C47.06 1267.47 47.06 1267.47 47.06 1267.47 Z M41.06 1268.47 C40.4 1269.13 39.74 1269.79 39.06 1270.47 C40.05 1270.47 41.04 1270.47 42.06 1270.47 C41.73 1269.81 41.4 1269.15 41.06 1268.47 Z M31.06 1271.47 C31.06 1271.8 31.06 1272.13 31.06 1272.47 C33.04 1272.47 35.02 1272.47 37.06 1272.47 C37.06 1272.14 37.06 1271.81 37.06 1271.47 C35.08 1271.47 33.1 1271.47 31.06 1271.47 Z M29.06 1272.47 C29.39 1273.13 29.72 1273.79 30.06 1274.47 C30.39 1273.81 30.72 1273.15 31.06 1272.47 C30.4 1272.47 29.74 1272.47 29.06 1272.47 Z M-24.94 1274.47 C-20.94 1275.47 -20.94 1275.47 -20.94 1275.47 Z M23.06 1274.47 C23.06 1274.8 23.06 1275.13 23.06 1275.47 C25.04 1275.47 27.02 1275.47 29.06 1275.47 C29.06 1275.14 29.06 1274.81 29.06 1274.47 C27.08 1274.47 25.1 1274.47 23.06 1274.47 Z " fill="#EA4243" transform="translate(362.942626953125,-0.466552734375)"/>
<path d="M0 0 C0.33 0 0.66 0 1 0 C1.02 1.01 1.04 2.03 1.06 3.07 C1.14 6.87 1.23 10.66 1.32 14.46 C1.36 16.1 1.39 17.73 1.42 19.37 C1.15 33.82 1.15 33.82 6 47 C6.7 49.32 7.37 51.66 8 54 C8.33 54.99 8.66 55.98 9 57 C9.66 57 10.32 57 11 57 C12.62 59.34 13.85 61.34 14.5 64.12 C15.13 66.47 16.27 67.34 18 69 C18.33 69.99 18.66 70.98 19 72 C20.24 73.24 20.24 73.24 21.5 74.5 C24 77 24 77 25 80 C25.55 80.27 26.11 80.54 26.68 80.82 C30.06 82.54 32.46 85.18 35.1 87.85 C35.71 88.45 36.32 89.06 36.94 89.68 C38.98 91.71 41.01 93.74 43.04 95.78 C44.5 97.24 45.96 98.69 47.42 100.15 C51.38 104.1 55.34 108.06 59.29 112.02 C63.43 116.16 67.56 120.3 71.7 124.43 C78.65 131.38 85.59 138.32 92.53 145.27 C100.57 153.32 108.61 161.36 116.66 169.39 C123.56 176.28 130.45 183.18 137.35 190.08 C141.47 194.2 145.59 198.32 149.71 202.44 C153.59 206.31 157.46 210.18 161.33 214.06 C162.75 215.49 164.17 216.91 165.6 218.34 C167.54 220.27 169.48 222.21 171.41 224.15 C171.98 224.72 172.55 225.29 173.15 225.88 C177 229.77 177 229.77 177 232 C177.54 232.22 178.09 232.44 178.65 232.66 C181.79 234.45 184.14 236.86 186.66 239.4 C187.22 239.96 187.79 240.52 188.37 241.09 C190.26 242.98 192.15 244.87 194.04 246.77 C195.41 248.13 196.78 249.49 198.14 250.85 C201.91 254.61 205.67 258.37 209.43 262.13 C213.49 266.18 217.55 270.22 221.6 274.27 C230.48 283.12 239.35 291.98 248.21 300.84 C253.74 306.37 259.28 311.9 264.81 317.43 C280.13 332.72 295.44 348.02 310.75 363.32 C311.24 363.81 311.73 364.3 312.23 364.81 C314.22 366.79 316.2 368.78 318.18 370.76 C319.68 372.25 321.17 373.75 322.67 375.24 C323.16 375.73 323.65 376.23 324.16 376.74 C339.67 392.25 355.2 407.75 370.73 423.24 C388.17 440.64 405.6 458.05 423.02 475.47 C432.25 484.69 441.48 493.91 450.72 503.13 C458.58 510.97 466.44 518.82 474.29 526.68 C478.29 530.69 482.3 534.7 486.32 538.7 C490 542.36 493.67 546.03 497.32 549.7 C498.65 551.04 499.98 552.36 501.32 553.69 C503.13 555.48 504.93 557.29 506.72 559.1 C507.25 559.61 507.77 560.13 508.32 560.66 C510.5 562.9 512 565 513.3 567.84 C512.79 573.13 509.1 575.85 505.41 579.44 C504.58 580.28 503.75 581.12 502.89 581.99 C500.56 584.33 498.22 586.65 495.87 588.97 C493.32 591.49 490.79 594.03 488.26 596.57 C483.82 601.02 479.37 605.46 474.91 609.88 C468.27 616.47 461.66 623.08 455.05 629.69 C443.93 640.8 432.79 651.91 421.65 663 C410.61 673.99 399.58 684.98 388.56 695.99 C387.87 696.68 387.19 697.36 386.48 698.06 C383 701.54 379.53 705.01 376.05 708.48 C351.4 733.1 326.74 757.7 302.07 782.29 C300.58 783.78 299.09 785.27 297.59 786.76 C296.85 787.49 296.11 788.23 295.35 788.99 C291.61 792.72 287.87 796.45 284.13 800.18 C283.39 800.92 282.64 801.66 281.88 802.42 C264.65 819.6 247.42 836.78 230.19 853.97 C229.45 854.7 228.71 855.44 227.95 856.2 C211.11 873 194.28 889.8 177.44 906.6 C176.74 907.31 176.03 908.01 175.3 908.74 C168.94 915.09 162.58 921.44 156.22 927.79 C139.66 944.32 123.1 960.84 106.53 977.35 C96.14 987.71 85.75 998.07 75.37 1008.43 C68.78 1015 62.2 1021.56 55.61 1028.12 C51.21 1032.49 46.82 1036.87 42.44 1041.26 C39.93 1043.76 37.43 1046.26 34.92 1048.75 C32.22 1051.43 29.53 1054.12 26.84 1056.81 C25.66 1057.98 25.66 1057.98 24.45 1059.17 C23.74 1059.89 23.03 1060.61 22.29 1061.34 C21.68 1061.96 21.06 1062.57 20.42 1063.2 C18.87 1065.17 18.53 1066.59 18 1069 C17.38 1069.58 16.76 1070.15 16.12 1070.75 C13.98 1073.02 13.49 1074.17 12.56 1077.06 C11.49 1080.25 11.16 1080.88 8.31 1083 C7.55 1083.33 6.79 1083.66 6 1084 C7.62 1075.84 13.3 1067 19 1061 C19.66 1061 20.32 1061 21 1061 C21.27 1060.24 21.54 1059.47 21.81 1058.69 C22.95 1056.11 23.81 1054.73 26 1053 C26.66 1053 27.32 1053 28 1053 C28.27 1052.36 28.54 1051.72 28.81 1051.06 C30 1049 30 1049 33 1048 C33.33 1047.34 33.66 1046.68 34 1046 C35 1044 35 1044 38 1043 C38.33 1042.34 38.66 1041.68 39 1041 C40 1039 40 1039 43 1038 C43.33 1037.34 43.66 1036.68 44 1036 C45 1034 45 1034 48 1033 C48.33 1032.34 48.66 1031.68 49 1031 C50 1029 50 1029 53 1028 C53.33 1027.34 53.66 1026.68 54 1026 C55 1024 55 1024 58 1023 C58.33 1022.34 58.66 1021.68 59 1021 C60 1019 60 1019 63 1018 C63.33 1017.34 63.66 1016.68 64 1016 C65 1014 65 1014 68 1013 C68.33 1012.34 68.66 1011.68 69 1011 C70 1009 70 1009 73 1008 C73.33 1007.34 73.66 1006.68 74 1006 C75 1004 75 1004 78 1003 C78.33 1002.34 78.66 1001.68 79 1001 C80 999 80 999 83 998 C83.33 997.34 83.66 996.68 84 996 C85 994 85 994 88 993 C88.33 992.34 88.66 991.68 89 991 C90 989 90 989 93 988 C93.33 987.34 93.66 986.68 94 986 C95 984 95 984 98 983 C98.33 982.34 98.66 981.68 99 981 C100 979 100 979 103 978 C103.33 977.34 103.66 976.68 104 976 C105 974 105 974 108 973 C108.33 972.34 108.66 971.68 109 971 C110 969 110 969 113 968 C113.33 967.34 113.66 966.68 114 966 C115 964 115 964 118 963 C118.33 962.34 118.66 961.68 119 961 C120 959 120 959 123 958 C123.33 957.34 123.66 956.68 124 956 C125 954 125 954 128 953 C128.33 952.34 128.66 951.68 129 951 C130 949 130 949 133 948 C133.33 947.34 133.66 946.68 134 946 C135 944 135 944 138 943 C138.33 942.34 138.66 941.68 139 941 C140 939 140 939 143 938 C143.33 937.34 143.66 936.68 144 936 C145 934 145 934 148 933 C148.33 932.34 148.66 931.68 149 931 C150 929 150 929 153 928 C153.33 927.34 153.66 926.68 154 926 C155 924 155 924 158 923 C158.33 922.34 158.66 921.68 159 921 C160 919 160 919 163 918 C163.33 917.34 163.66 916.68 164 916 C165 914 165 914 168 913 C168.33 912.34 168.66 911.68 169 911 C170 909 170 909 173 908 C173.33 907.34 173.66 906.68 174 906 C175 904 175 904 178 903 C178.33 902.34 178.66 901.68 179 901 C180 899 180 899 183 898 C183.33 897.34 183.66 896.68 184 896 C185 894 185 894 188 893 C188.33 892.34 188.66 891.68 189 891 C190 889 190 889 193 888 C193.33 887.34 193.66 886.68 194 886 C195 884 195 884 198 883 C198.33 882.34 198.66 881.68 199 881 C200 879 200 879 203 878 C203.33 877.34 203.66 876.68 204 876 C205 874 205 874 208 873 C208.33 872.34 208.66 871.68 209 871 C210 869 210 869 213 868 C213.33 867.34 213.66 866.68 214 866 C215 864 215 864 218 863 C218.33 862.34 218.66 861.68 219 861 C220 859 220 859 223 858 C223.33 857.34 223.66 856.68 224 856 C225 854 225 854 228 853 C228.33 852.34 228.66 851.68 229 851 C230 849 230 849 233 848 C233.33 847.34 233.66 846.68 234 846 C235 844 235 844 238 843 C238.33 842.34 238.66 841.68 239 841 C240 839 240 839 243 838 C243.33 837.34 243.66 836.68 244 836 C245 834 245 834 248 833 C248.33 832.34 248.66 831.68 249 831 C250 829 250 829 253 828 C253.33 827.34 253.66 826.68 254 826 C255 824 255 824 258 823 C258.33 822.34 258.66 821.68 259 821 C260 819 260 819 263 818 C263.33 817.34 263.66 816.68 264 816 C265 814 265 814 268 813 C268.33 812.34 268.66 811.68 269 811 C270 809 270 809 273 808 C273.33 807.34 273.66 806.68 274 806 C275 804 275 804 278 803 C278.33 802.34 278.66 801.68 279 801 C280 799 280 799 283 798 C283.33 797.34 283.66 796.68 284 796 C285 794 285 794 288 793 C288.33 792.34 288.66 791.68 289 791 C290 789 290 789 293 788 C293.33 787.34 293.66 786.68 294 786 C295 784 295 784 298 783 C298.33 782.34 298.66 781.68 299 781 C300 779 300 779 303 778 C303.33 777.34 303.66 776.68 304 776 C305 774 305 774 308 773 C308.33 772.34 308.66 771.68 309 771 C310 769 310 769 313 768 C313.33 767.34 313.66 766.68 314 766 C315 764 315 764 318 763 C318.33 762.34 318.66 761.68 319 761 C320 759 320 759 323 758 C323.33 757.34 323.66 756.68 324 756 C325 754 325 754 328 753 C328.33 752.34 328.66 751.68 329 751 C330 749 330 749 333 748 C333.33 747.34 333.66 746.68 334 746 C335 744 335 744 338 743 C338.33 742.34 338.66 741.68 339 741 C340 739 340 739 343 738 C343.33 737.34 343.66 736.68 344 736 C345 734 345 734 348 733 C348.33 732.34 348.66 731.68 349 731 C350 729 350 729 353 728 C353.33 727.34 353.66 726.68 354 726 C355 724 355 724 358 723 C358.33 722.34 358.66 721.68 359 721 C360 719 360 719 363 718 C363.33 717.34 363.66 716.68 364 716 C365 714 365 714 368 713 C368.33 712.34 368.66 711.68 369 711 C370 709 370 709 373 708 C373.33 707.34 373.66 706.68 374 706 C375 704 375 704 378 703 C378.33 702.34 378.66 701.68 379 701 C380 699 380 699 383 698 C383.33 697.34 383.66 696.68 384 696 C385 694 385 694 388 693 C388.33 692.34 388.66 691.68 389 691 C390 689 390 689 393 688 C393.33 687.34 393.66 686.68 394 686 C395 684 395 684 398 683 C398.33 682.34 398.66 681.68 399 681 C400 679 400 679 403 678 C403.33 677.34 403.66 676.68 404 676 C405 674 405 674 408 673 C408.33 672.34 408.66 671.68 409 671 C410 669 410 669 413 668 C413.33 667.01 413.66 666.02 414 665 C414.66 665 415.32 665 416 665 C416 664.34 416 663.68 416 663 C416.66 663 417.32 663 418 663 C418.33 662.01 418.66 661.02 419 660 C419.66 660 420.32 660 421 660 C421 659.34 421 658.68 421 658 C421.66 658 422.32 658 423 658 C423.33 657.01 423.66 656.02 424 655 C424.66 655 425.32 655 426 655 C426 654.34 426 653.68 426 653 C426.66 653 427.32 653 428 653 C428.33 652.01 428.66 651.02 429 650 C429.66 650 430.32 650 431 650 C431 649.34 431 648.68 431 648 C431.66 648 432.32 648 433 648 C433.33 647.01 433.66 646.02 434 645 C434.66 645 435.32 645 436 645 C436 644.34 436 643.68 436 643 C436.66 643 437.32 643 438 643 C438.33 642.01 438.66 641.02 439 640 C439.66 640 440.32 640 441 640 C441 639.34 441 638.68 441 638 C441.66 638 442.32 638 443 638 C443.33 637.01 443.66 636.02 444 635 C444.66 635 445.32 635 446 635 C446 634.34 446 633.68 446 633 C446.66 633 447.32 633 448 633 C448.33 632.01 448.66 631.02 449 630 C449.66 630 450.32 630 451 630 C451 629.34 451 628.68 451 628 C451.66 628 452.32 628 453 628 C453.33 627.01 453.66 626.02 454 625 C454.66 625 455.32 625 456 625 C456 624.34 456 623.68 456 623 C456.66 623 457.32 623 458 623 C458.33 622.01 458.66 621.02 459 620 C459.66 620 460.32 620 461 620 C461 619.34 461 618.68 461 618 C461.66 618 462.32 618 463 618 C463.33 617.01 463.66 616.02 464 615 C464.66 615 465.32 615 466 615 C466 614.34 466 613.68 466 613 C466.66 613 467.32 613 468 613 C468.33 612.01 468.66 611.02 469 610 C469.66 610 470.32 610 471 610 C471 609.34 471 608.68 471 608 C471.66 608 472.32 608 473 608 C473.33 607.01 473.66 606.02 474 605 C474.66 605 475.32 605 476 605 C476 604.34 476 603.68 476 603 C476.66 603 477.32 603 478 603 C478.33 602.01 478.66 601.02 479 600 C479.66 600 480.32 600 481 600 C481 599.34 481 598.68 481 598 C481.66 598 482.32 598 483 598 C483.33 597.01 483.66 596.02 484 595 C484.66 595 485.32 595 486 595 C486 594.34 486 593.68 486 593 C486.66 593 487.32 593 488 593 C488.33 592.01 488.66 591.02 489 590 C489.66 590 490.32 590 491 590 C491 589.34 491 588.68 491 588 C491.66 588 492.32 588 493 588 C493.33 587.01 493.66 586.02 494 585 C494.66 585 495.32 585 496 585 C496 584.34 496 583.68 496 583 C496.66 583 497.32 583 498 583 C498.33 582.01 498.66 581.02 499 580 C499.66 580 500.32 580 501 580 C501 579.34 501 578.68 501 578 C501.66 578 502.32 578 503 578 C503.33 577.01 503.66 576.02 504 575 C504.66 575 505.32 575 506 575 C506 574.34 506 573.68 506 573 C506.66 573 507.32 573 508 573 C508.8 569.71 509.1 568.29 508 565 C507.34 565 506.68 565 506 565 C506 564.34 506 563.68 506 563 C505.01 562.67 504.02 562.34 503 562 C503 561.34 503 560.68 503 560 C502.34 560 501.68 560 501 560 C501 559.34 501 558.68 501 558 C500.01 557.67 499.02 557.34 498 557 C498 556.34 498 555.68 498 555 C497.34 555 496.68 555 496 555 C496 554.34 496 553.68 496 553 C495.01 552.67 494.02 552.34 493 552 C493 551.34 493 550.68 493 550 C492.34 550 491.68 550 491 550 C491 549.34 491 548.68 491 548 C490.01 547.67 489.02 547.34 488 547 C488 546.34 488 545.68 488 545 C487.34 545 486.68 545 486 545 C486 544.34 486 543.68 486 543 C485.01 542.67 484.02 542.34 483 542 C483 541.34 483 540.68 483 540 C482.34 540 481.68 540 481 540 C481 539.34 481 538.68 481 538 C480.01 537.67 479.02 537.34 478 537 C478 536.34 478 535.68 478 535 C477.34 535 476.68 535 476 535 C476 534.34 476 533.68 476 533 C475.01 532.67 474.02 532.34 473 532 C473 531.34 473 530.68 473 530 C472.34 530 471.68 530 471 530 C471 529.34 471 528.68 471 528 C470.01 527.67 469.02 527.34 468 527 C468 526.34 468 525.68 468 525 C467.34 525 466.68 525 466 525 C466 524.34 466 523.68 466 523 C465.01 522.67 464.02 522.34 463 522 C463 521.34 463 520.68 463 520 C462.34 520 461.68 520 461 520 C461 519.34 461 518.68 461 518 C460.01 517.67 459.02 517.34 458 517 C458 516.34 458 515.68 458 515 C457.34 515 456.68 515 456 515 C456 514.34 456 513.68 456 513 C455.01 512.67 454.02 512.34 453 512 C453 511.34 453 510.68 453 510 C452.34 510 451.68 510 451 510 C451 509.34 451 508.68 451 508 C450.01 507.67 449.02 507.34 448 507 C448 506.34 448 505.68 448 505 C447.34 505 446.68 505 446 505 C446 504.34 446 503.68 446 503 C445.01 502.67 444.02 502.34 443 502 C443 501.34 443 500.68 443 500 C442.34 500 441.68 500 441 500 C441 499.34 441 498.68 441 498 C440.01 497.67 439.02 497.34 438 497 C438 496.34 438 495.68 438 495 C437.34 495 436.68 495 436 495 C436 494.34 436 493.68 436 493 C435.01 492.67 434.02 492.34 433 492 C433 491.34 433 490.68 433 490 C432.34 490 431.68 490 431 490 C431 489.34 431 488.68 431 488 C430.01 487.67 429.02 487.34 428 487 C428 486.34 428 485.68 428 485 C427.34 485 426.68 485 426 485 C426 484.34 426 483.68 426 483 C425.01 482.67 424.02 482.34 423 482 C423 481.34 423 480.68 423 480 C422.34 480 421.68 480 421 480 C421 479.34 421 478.68 421 478 C420.01 477.67 419.02 477.34 418 477 C418 476.34 418 475.68 418 475 C417.34 475 416.68 475 416 475 C416 474.34 416 473.68 416 473 C415.01 472.67 414.02 472.34 413 472 C413 471.34 413 470.68 413 470 C412.36 469.73 411.72 469.46 411.06 469.19 C409 468 409 468 408 465 C407.34 464.67 406.68 464.34 406 464 C404 463 404 463 403 460 C402.34 459.67 401.68 459.34 401 459 C399 458 399 458 398 455 C397.34 454.67 396.68 454.34 396 454 C394 453 394 453 393 450 C392.34 449.67 391.68 449.34 391 449 C389 448 389 448 388 445 C387.34 444.67 386.68 444.34 386 444 C384 443 384 443 383 440 C382.34 439.67 381.68 439.34 381 439 C379 438 379 438 378 435 C377.34 434.67 376.68 434.34 376 434 C374 433 374 433 373 430 C372.34 429.67 371.68 429.34 371 429 C369 428 369 428 368 425 C367.34 424.67 366.68 424.34 366 424 C364 423 364 423 363 420 C362.34 419.67 361.68 419.34 361 419 C359 418 359 418 358 415 C357.34 414.67 356.68 414.34 356 414 C354 413 354 413 353 410 C352.34 409.67 351.68 409.34 351 409 C349 408 349 408 348 405 C347.34 404.67 346.68 404.34 346 404 C344 403 344 403 343 400 C342.34 399.67 341.68 399.34 341 399 C339 398 339 398 338 395 C337.34 394.67 336.68 394.34 336 394 C334 393 334 393 333 390 C332.34 389.67 331.68 389.34 331 389 C329 388 329 388 328 385 C327.34 384.67 326.68 384.34 326 384 C324 383 324 383 323 380 C322.34 379.67 321.68 379.34 321 379 C319 378 319 378 318 375 C317.34 374.67 316.68 374.34 316 374 C314 373 314 373 313 370 C312.34 369.67 311.68 369.34 311 369 C309 368 309 368 308 365 C307.34 364.67 306.68 364.34 306 364 C304 363 304 363 303 360 C302.34 359.67 301.68 359.34 301 359 C299 358 299 358 298 355 C297.34 354.67 296.68 354.34 296 354 C294 353 294 353 293 350 C292.34 349.67 291.68 349.34 291 349 C289 348 289 348 288 345 C287.34 344.67 286.68 344.34 286 344 C284 343 284 343 283 340 C282.34 339.67 281.68 339.34 281 339 C279 338 279 338 278 335 C277.34 334.67 276.68 334.34 276 334 C274 333 274 333 273 330 C272.34 329.67 271.68 329.34 271 329 C269 328 269 328 268 325 C267.34 324.67 266.68 324.34 266 324 C264 323 264 323 263 320 C262.34 319.67 261.68 319.34 261 319 C259 318 259 318 258 315 C257.34 314.67 256.68 314.34 256 314 C254 313 254 313 253 310 C252.34 309.67 251.68 309.34 251 309 C249 308 249 308 248 305 C247.34 304.67 246.68 304.34 246 304 C244 303 244 303 243 300 C242.34 299.67 241.68 299.34 241 299 C239 298 239 298 238 295 C237.34 294.67 236.68 294.34 236 294 C234 293 234 293 233 290 C232.34 289.67 231.68 289.34 231 289 C229 288 229 288 228 285 C227.34 284.67 226.68 284.34 226 284 C224 283 224 283 223 280 C222.34 279.67 221.68 279.34 221 279 C219 278 219 278 218 275 C217.34 274.67 216.68 274.34 216 274 C214 273 214 273 213 270 C212.34 269.67 211.68 269.34 211 269 C209 268 209 268 208 265 C207.34 264.67 206.68 264.34 206 264 C204 263 204 263 203 260 C202.34 259.67 201.68 259.34 201 259 C199 258 199 258 198 255 C197.34 254.67 196.68 254.34 196 254 C194 253 194 253 193 250 C192.34 249.67 191.68 249.34 191 249 C189 248 189 248 188 245 C187.34 244.67 186.68 244.34 186 244 C184 243 184 243 183 240 C182.34 239.67 181.68 239.34 181 239 C179 238 179 238 178 235 C177.34 234.67 176.68 234.34 176 234 C174 233 174 233 173 230 C172.34 229.67 171.68 229.34 171 229 C169 228 169 228 168 225 C167.34 224.67 166.68 224.34 166 224 C164 223 164 223 163 220 C162.34 219.67 161.68 219.34 161 219 C159 218 159 218 158 215 C157.34 214.67 156.68 214.34 156 214 C154 213 154 213 153 210 C152.34 209.67 151.68 209.34 151 209 C149 208 149 208 148 205 C147.34 204.67 146.68 204.34 146 204 C144 203 144 203 143 200 C142.34 199.67 141.68 199.34 141 199 C139 198 139 198 138 195 C137.34 194.67 136.68 194.34 136 194 C134 193 134 193 133 190 C132.34 189.67 131.68 189.34 131 189 C129 188 129 188 128 185 C127.34 184.67 126.68 184.34 126 184 C124 183 124 183 123 180 C122.34 179.67 121.68 179.34 121 179 C119 178 119 178 118 175 C117.34 174.67 116.68 174.34 116 174 C114 173 114 173 113 170 C112.34 169.67 111.68 169.34 111 169 C109 168 109 168 108 165 C107.34 164.67 106.68 164.34 106 164 C104 163 104 163 103 160 C102.34 159.67 101.68 159.34 101 159 C99 158 99 158 98 155 C97.34 154.67 96.68 154.34 96 154 C94 153 94 153 93 150 C92.34 149.67 91.68 149.34 91 149 C89 148 89 148 88 145 C87.34 144.67 86.68 144.34 86 144 C84 143 84 143 83 140 C82.34 139.67 81.68 139.34 81 139 C79 138 79 138 78 135 C77.34 134.67 76.68 134.34 76 134 C74 133 74 133 73 130 C72.34 129.67 71.68 129.34 71 129 C69 128 69 128 68 125 C67.34 124.67 66.68 124.34 66 124 C64 123 64 123 63 120 C62.01 119.5 62.01 119.5 61 119 C59 118 59 118 58 115 C57.01 114.5 57.01 114.5 56 114 C54 113 54 113 53 110 C52.01 109.5 52.01 109.5 51 109 C49 108 49 108 48 105 C47.01 104.5 47.01 104.5 46 104 C44 103 44 103 43 100 C42.01 99.5 42.01 99.5 41 99 C39 98 39 98 38 95 C37.01 94.5 37.01 94.5 36 94 C34 93 34 93 33 90 C32.01 89.5 32.01 89.5 31 89 C29 88 29 88 28 85 C27.38 84.69 26.76 84.38 26.12 84.06 C23.56 82.78 22.51 81.41 21 79 C21 78.34 21 77.68 21 77 C20.34 77 19.68 77 19 77 C2.41 58.61 -2.65 35.05 -2 11 C-1.47 2.93 -1.47 2.93 0 0 Z " fill="#000000" transform="translate(276,71)"/>
<path d="M0 0 C4 0.62 6.8 2.6 10 5 C10 5.66 10 6.32 10 7 C10.93 7.46 10.93 7.46 11.88 7.94 C13.25 8.62 14.62 9.31 16 10 C16 10.66 16 11.32 16 12 C16.58 12.25 17.15 12.5 17.75 12.76 C20.29 14.16 21.98 15.73 24.03 17.78 C24.83 18.57 25.63 19.37 26.45 20.18 C27.32 21.06 28.2 21.94 29.1 22.85 C30.04 23.79 30.99 24.73 31.93 25.67 C34.54 28.27 37.14 30.88 39.74 33.48 C42.57 36.31 45.4 39.14 48.23 41.96 C53.19 46.92 58.15 51.88 63.11 56.85 C70.48 64.23 77.86 71.6 85.24 78.97 C98.42 92.14 111.59 105.31 124.76 118.49 C136.28 130.01 147.81 141.54 159.33 153.06 C160.1 153.83 160.86 154.59 161.65 155.38 C164.75 158.48 167.84 161.58 170.94 164.67 C200.04 193.76 229.12 222.85 258.21 251.95 C284.07 277.82 309.94 303.68 335.81 329.55 C364.85 358.58 393.89 387.61 422.93 416.66 C426.02 419.75 429.11 422.84 432.2 425.94 C432.96 426.7 433.73 427.46 434.51 428.24 C446.03 439.77 457.55 451.29 469.08 462.81 C482.18 475.9 495.27 488.99 508.36 502.09 C515.69 509.43 523.03 516.77 530.37 524.1 C535.26 528.99 540.15 533.88 545.04 538.78 C547.83 541.57 550.62 544.37 553.42 547.15 C556.42 550.15 559.41 553.15 562.41 556.15 C563.29 557.03 564.17 557.91 565.08 558.82 C565.87 559.61 566.66 560.4 567.47 561.22 C568.16 561.91 568.84 562.59 569.55 563.3 C571 565 571 565 571 567 C571.66 567 572.32 567 573 567 C576 570.46 576 570.46 576 573 C576.66 573 577.32 573 578 573 C580.3 575.56 581 576.48 581 580 C581.66 580 582.32 580 583 580 C583 580.99 583 581.98 583 583 C581.06 582.31 581.06 582.31 579 581 C578.25 578.37 578.25 578.37 578 576 C577.42 575.92 576.84 575.84 576.24 575.75 C573.3 574.76 572.18 573.3 570.19 570.94 C569.49 570.13 568.8 569.31 568.08 568.48 C567.05 567.25 567.05 567.25 566 566 C562.16 561.45 558.36 557.35 553.76 553.57 C551.13 551.22 548.91 548.56 546.62 545.88 C544.54 543.46 542.29 541.23 540 539 C457.5 456.5 375 374 22.75 21.69 C19.55 18.56 16.19 15.67 12.79 12.77 C12.2 12.19 11.61 11.6 11 11 C11 10.34 11 9.68 11 9 C10.42 8.71 9.85 8.42 9.25 8.12 C7.17 7.08 5.08 6.04 3 5 C3 4.34 3 3.68 3 3 C2.01 2.67 1.02 2.34 0 2 C0 1.34 0 0.68 0 0 Z " fill="#000000" transform="translate(410,12)"/>
<path d="M0 0 C0.99 0 1.98 0 3 0 C2.32 3.12 1.26 5.85 -0.06 8.75 C-0.42 9.55 -0.79 10.35 -1.16 11.17 C-1.44 11.78 -1.71 12.38 -2 13 C-2.66 13 -3.32 13 -4 13 C-4.12 13.6 -4.25 14.2 -4.38 14.81 C-5 17 -5 17 -7 20 C-7.66 20 -8.32 20 -9 20 C-9.31 20.62 -9.62 21.24 -9.94 21.88 C-10.62 23.25 -11.31 24.62 -12 26 C-12.66 26 -13.32 26 -14 26 C-14.38 26.87 -14.38 26.87 -14.76 27.75 C-16.16 30.29 -17.73 31.98 -19.78 34.03 C-20.97 35.23 -20.97 35.23 -22.18 36.45 C-23.06 37.32 -23.94 38.2 -24.85 39.1 C-25.79 40.04 -26.73 40.99 -27.67 41.93 C-30.27 44.54 -32.88 47.14 -35.48 49.74 C-38.31 52.57 -41.14 55.4 -43.96 58.23 C-48.92 63.19 -53.88 68.15 -58.85 73.11 C-66.23 80.48 -73.6 87.86 -80.97 95.24 C-94.14 108.42 -107.31 121.59 -120.49 134.76 C-132.01 146.28 -143.54 157.81 -155.06 169.33 C-155.83 170.1 -156.59 170.86 -157.38 171.65 C-160.48 174.75 -163.58 177.84 -166.67 180.94 C-195.76 210.04 -224.85 239.12 -253.95 268.21 C-279.82 294.07 -305.68 319.94 -331.55 345.81 C-360.58 374.85 -389.61 403.89 -418.66 432.93 C-421.75 436.02 -424.84 439.11 -427.94 442.2 C-428.7 442.96 -429.46 443.73 -430.24 444.51 C-441.77 456.03 -453.29 467.55 -464.81 479.08 C-477.9 492.18 -490.99 505.27 -504.09 518.36 C-511.43 525.69 -518.77 533.03 -526.1 540.37 C-530.99 545.26 -535.88 550.15 -540.78 555.04 C-543.57 557.83 -546.37 560.62 -549.15 563.42 C-552.15 566.42 -555.15 569.41 -558.15 572.41 C-559.03 573.29 -559.91 574.17 -560.82 575.08 C-561.61 575.87 -562.4 576.66 -563.22 577.47 C-564.25 578.5 -564.25 578.5 -565.3 579.55 C-567 581 -567 581 -569 581 C-569 581.66 -569 582.32 -569 583 C-572.46 586 -572.46 586 -575 586 C-575 586.66 -575 587.32 -575 588 C-579.87 591.88 -584.92 594.61 -590.56 597.19 C-591.29 597.53 -592.02 597.87 -592.77 598.22 C-603.85 603.36 -603.85 603.36 -610 603 C-609.67 602.01 -609.34 601.02 -609 600 C-606.69 599.26 -604.35 598.59 -602 598 C-601.67 597.67 -601.34 597.34 -601 597 C-599 596.96 -597 596.96 -595 597 C-594.67 596.01 -594.34 595.02 -594 594 C-592.68 594.33 -591.36 594.66 -590 595 C-589.67 594.01 -589.34 593.02 -589 592 C-587.35 591.3 -585.68 590.64 -584 590 C-583.26 589.26 -583.26 589.26 -582.5 588.5 C-581 587 -581 587 -578.67 586.15 C-575.68 584.86 -574.04 583.42 -571.74 581.12 C-570.92 580.31 -570.1 579.49 -569.25 578.65 C-568.35 577.75 -567.46 576.84 -566.53 575.91 C-565.56 574.94 -564.59 573.98 -563.61 573.01 C-560.93 570.34 -558.26 567.66 -555.58 564.98 C-552.68 562.06 -549.77 559.16 -546.85 556.26 C-541.75 551.16 -536.64 546.06 -531.55 540.96 C-523.96 533.37 -516.38 525.79 -508.78 518.21 C-495.23 504.67 -481.68 491.13 -468.14 477.58 C-456.29 465.72 -444.43 453.87 -432.58 442.02 C-430.99 440.43 -429.4 438.84 -427.81 437.25 C-425.42 434.86 -423.02 432.47 -420.63 430.08 C-398.37 407.83 -376.11 385.57 -353.86 363.31 C-353.02 362.47 -352.18 361.63 -351.31 360.77 C-344.5 353.95 -337.68 347.13 -330.87 340.31 C-304.27 313.7 -277.66 287.11 -251.05 260.52 C-221.17 230.66 -191.3 200.8 -161.43 170.93 C-158.25 167.75 -155.07 164.57 -151.89 161.38 C-151.1 160.6 -150.32 159.82 -149.51 159.01 C-137.67 147.16 -125.81 135.32 -113.96 123.47 C-100.48 110.01 -87.02 96.55 -73.56 83.07 C-66.02 75.52 -58.47 67.98 -50.92 60.44 C-45.89 55.42 -40.86 50.38 -35.83 45.34 C-32.96 42.47 -30.09 39.6 -27.21 36.73 C-24.6 34.13 -21.99 31.52 -19.39 28.9 C-18.01 27.51 -16.61 26.13 -15.22 24.75 C-14 23.51 -14 23.51 -12.75 22.25 C-12.05 21.55 -11.34 20.84 -10.61 20.11 C-8.78 17.71 -8.49 15.95 -8 13 C-6.68 11.98 -5.35 10.98 -4 10 C-2.73 7.42 -2.73 7.42 -2 5 C-1.34 5 -0.68 5 0 5 C0 3.35 0 1.7 0 0 Z " fill="#000000" transform="translate(995,675)"/>
<path d="M0 0 C2 1 2 1 2.94 3.5 C3.29 4.65 3.64 5.81 4 7 C5.57 12.08 7.2 16.45 10 21 C10.47 22.33 10.93 23.66 11.38 25 C12.77 28.95 14.91 31.15 18 34 C18.33 34.99 18.66 35.98 19 37 C19.66 37 20.32 37 21 37 C22.22 38.46 23.44 39.92 24.62 41.41 C26.12 43.24 26.12 43.24 28.81 45.25 C29.53 45.83 30.26 46.4 31 47 C31 47.66 31 48.32 31 49 C31.9 49.09 31.9 49.09 32.81 49.19 C35 50 35 50 36.44 52.5 C37.74 55.22 37.74 55.22 40.38 55.62 C41.24 55.75 42.11 55.87 43 56 C45.81 57.44 45.81 57.44 48 59 C48 59.66 48 60.32 48 61 C48.77 60.66 48.77 60.66 49.56 60.31 C53.27 59.84 55.72 61.36 59 63 C59.99 63.99 59.99 63.99 61 65 C61.99 65 62.98 65 64 65 C64.99 65 65.98 65 67 65 C67.66 65.66 68.32 66.32 69 67 C71.65 67.18 74.2 67.23 76.85 67.2 C78.01 67.19 78.01 67.19 79.2 67.19 C81.67 67.18 84.15 67.15 86.62 67.12 C88.3 67.11 89.98 67.11 91.66 67.1 C95.77 67.08 99.89 67.04 104 67 C104 67.66 104 68.32 104 69 C105.49 69.49 105.49 69.49 107 70 C104.98 72.02 100.86 71.19 98.09 71.2 C97.29 71.21 96.49 71.21 95.66 71.22 C93.96 71.23 92.26 71.24 90.56 71.24 C87.97 71.25 85.39 71.28 82.81 71.31 C81.15 71.32 79.5 71.32 77.84 71.33 C77.07 71.34 76.31 71.35 75.52 71.37 C70.05 71.34 66.04 70.14 61 68 C59.59 67.55 58.17 67.11 56.75 66.69 C47.53 63.61 39.65 59.14 32.24 52.87 C30.32 51.27 28.41 49.91 26.31 48.56 C21.94 45.5 19.12 41.26 16 37 C15.26 36.13 15.26 36.13 14.51 35.24 C7.13 26.37 -0.56 11.66 0 0 Z " fill="#000000" transform="translate(277,1209)"/>
<path d="M0 0 C2 1 2 1 2.78 2.79 C7.07 16.38 8.31 28.75 8 43 C7.98 43.8 7.97 44.61 7.95 45.43 C7.58 50.78 6.02 55.87 4.56 61 C4.35 61.77 4.13 62.54 3.9 63.33 C3.33 65.24 2.67 67.12 2 69 C1.01 69.5 1.01 69.5 0 70 C-0.62 67.12 -0.62 67.12 -1 64 C-0.34 63.34 0.32 62.68 1 62 C1.25 60.03 1.51 58.05 1.66 56.07 C2 54 2 54 3.05 51.98 C4.39 49.19 3.71 46.88 3.3 43.89 C2.37 34.96 2.14 25.58 5 17 C4.01 17 3.02 17 2 17 C1.96 16.37 1.93 15.75 1.89 15.1 C1.82 14.28 1.76 13.47 1.69 12.62 C1.63 11.81 1.57 11 1.51 10.16 C1.17 7.62 1.17 7.62 -2 6 C-2 5.34 -2 4.68 -2 4 C-1.34 4 -0.68 4 0 4 C0 2.68 0 1.36 0 0 Z " fill="#000000" transform="translate(998,605)"/>
<path d="M0 0 C0.33 0 0.66 0 1 0 C1.12 7.75 1.12 7.75 0 10 C-0.16 12.62 -0.26 15.23 -0.32 17.85 C-0.34 18.63 -0.36 19.4 -0.38 20.2 C-0.44 22.67 -0.5 25.15 -0.56 27.62 C-0.61 29.3 -0.65 30.98 -0.69 32.66 C-0.8 36.77 -0.9 40.89 -1 45 C-5.27 40.73 -4.08 32.22 -4.12 26.5 C-4.04 17 -3 9.03 0 0 Z " fill="#000000" transform="translate(278,1164)"/>
<path d="M0 0 C0.66 0.33 1.32 0.66 2 1 C1.25 1.73 0.51 2.46 -0.26 3.22 C-3.04 5.94 -5.81 8.67 -8.57 11.41 C-9.77 12.59 -10.97 13.77 -12.17 14.94 C-13.9 16.63 -15.62 18.34 -17.34 20.04 C-17.87 20.56 -18.41 21.09 -18.96 21.62 C-21.89 24.55 -23.79 27.02 -25 31 C-25.66 31 -26.32 31 -27 31 C-26.39 27.46 -25 25.45 -22.75 22.69 C-20.56 19.98 -18.51 17.3 -16.62 14.38 C-13.55 9.99 -9.28 7.12 -5 4 C-3.33 2.67 -1.66 1.34 0 0 Z " fill="#000000" transform="translate(314,14)"/>
<path d="M0 0 C9.07 0.81 17.31 4.22 25 9 C25 9.33 25 9.66 25 10 C20.62 10.38 18.67 9.27 15 7 C12.68 6.28 10.35 5.6 8 5 C8 4.34 8 3.68 8 3 C5.36 2.67 2.72 2.34 0 2 C0 1.34 0 0.68 0 0 Z " fill="#000000" transform="translate(385,2)"/>
<path d="M0 0 C0 0.66 0 1.32 0 2 C-1.13 2.31 -2.27 2.62 -3.44 2.94 C-6.79 3.63 -6.79 3.63 -8 5 C-10.33 5.04 -12.67 5.04 -15 5 C-15 5.66 -15 6.32 -15 7 C-18.32 8.42 -21.44 9.39 -25 10 C-19.18 3.52 -8.64 -0.52 0 0 Z " fill="#000000" transform="translate(345,2)"/>
<path d="M0 0 C0.33 0 0.66 0 1 0 C1 2.31 1 4.62 1 7 C0.34 7 -0.32 7 -1 7 C-1.12 8.3 -1.25 9.6 -1.38 10.94 C-1.59 13.15 -1.59 13.15 -2 15 C-2.99 15.5 -2.99 15.5 -4 16 C-4.63 10 -2.38 5.37 0 0 Z " fill="#000000" transform="translate(281,55)"/>
</svg>
